<?xml version="1.0" encoding="UTF-8" standalone="no"?>
<!DOCTYPE svg PUBLIC "-//W3C//DTD SVG 1.1//EN"
 "http://www.w3.org/Graphics/SVG/1.1/DTD/svg11.dtd">
<!-- Generated by graphviz version 2.43.0 (0)
 -->
<!-- Title: snakemake_dag Pages: 1 -->
<svg width="1040pt" height="260pt"
 viewBox="0.00 0.00 1040.00 260.00" xmlns="http://www.w3.org/2000/svg" xmlns:xlink="http://www.w3.org/1999/xlink">
<g id="graph0" class="graph" transform="scale(1 1) rotate(0) translate(4 256)">
<title>snakemake_dag</title>
<polygon fill="white" stroke="transparent" points="-4,4 -4,-256 1036,-256 1036,4 -4,4"/>
<!-- 0 -->
<g id="node1" class="node">
<title>0</title>
<path fill="none" stroke="#d85656" stroke-width="2" d="M571.5,-36C571.5,-36 536.5,-36 536.5,-36 530.5,-36 524.5,-30 524.5,-24 524.5,-24 524.5,-12 524.5,-12 524.5,-6 530.5,0 536.5,0 536.5,0 571.5,0 571.5,0 577.5,0 583.5,-6 583.5,-12 583.5,-12 583.5,-24 583.5,-24 583.5,-30 577.5,-36 571.5,-36"/>
<text text-anchor="middle" x="554" y="-15.5" font-family="sans" font-size="10.00">counting</text>
</g>
<!-- 1 -->
<g id="node2" class="node">
<title>1</title>
<path fill="none" stroke="#56d8c9" stroke-width="2" d="M340.5,-108C340.5,-108 305.5,-108 305.5,-108 299.5,-108 293.5,-102 293.5,-96 293.5,-96 293.5,-84 293.5,-84 293.5,-78 299.5,-72 305.5,-72 305.5,-72 340.5,-72 340.5,-72 346.5,-72 352.5,-78 352.5,-84 352.5,-84 352.5,-96 352.5,-96 352.5,-102 346.5,-108 340.5,-108"/>
<text text-anchor="middle" x="323" y="-87.5" font-family="sans" font-size="10.00">mapping</text>
</g>
<!-- 1&#45;&gt;0 -->
<g id="edge1" class="edge">
<title>1&#45;&gt;0</title>
<path fill="none" stroke="grey" stroke-width="2" d="M352.69,-75.2C355.48,-74.06 358.28,-72.98 361,-72 413.2,-53.28 475.33,-37.3 514.72,-27.92"/>
<polygon fill="grey" stroke="grey" stroke-width="2" points="515.54,-31.32 524.47,-25.62 513.93,-24.51 515.54,-31.32"/>
</g>
<!-- 2 -->
<g id="node3" class="node">
<title>2</title>
<path fill="none" stroke="#d8a456" stroke-width="2" d="M533.5,-180C533.5,-180 498.5,-180 498.5,-180 492.5,-180 486.5,-174 486.5,-168 486.5,-168 486.5,-156 486.5,-156 486.5,-150 492.5,-144 498.5,-144 498.5,-144 533.5,-144 533.5,-144 539.5,-144 545.5,-150 545.5,-156 545.5,-156 545.5,-168 545.5,-168 545.5,-174 539.5,-180 533.5,-180"/>
<text text-anchor="middle" x="516" y="-159.5" font-family="sans" font-size="10.00">indexing</text>
</g>
<!-- 2&#45;&gt;1 -->
<g id="edge8" class="edge">
<title>2&#45;&gt;1</title>
<path fill="none" stroke="grey" stroke-width="2" d="M486.33,-147.66C483.2,-146.38 480.05,-145.13 477,-144 429.27,-126.25 413.31,-126.91 362.31,-108.28"/>
<polygon fill="grey" stroke="grey" stroke-width="2" points="363.32,-104.92 352.73,-104.7 360.88,-111.48 363.32,-104.92"/>
</g>
<!-- 5 -->
<g id="node6" class="node">
<title>5</title>
<path fill="none" stroke="#56d8c9" stroke-width="2" d="M417.5,-108C417.5,-108 382.5,-108 382.5,-108 376.5,-108 370.5,-102 370.5,-96 370.5,-96 370.5,-84 370.5,-84 370.5,-78 376.5,-72 382.5,-72 382.5,-72 417.5,-72 417.5,-72 423.5,-72 429.5,-78 429.5,-84 429.5,-84 429.5,-96 429.5,-96 429.5,-102 423.5,-108 417.5,-108"/>
<text text-anchor="middle" x="400" y="-87.5" font-family="sans" font-size="10.00">mapping</text>
</g>
<!-- 2&#45;&gt;5 -->
<g id="edge11" class="edge">
<title>2&#45;&gt;5</title>
<path fill="none" stroke="grey" stroke-width="2" d="M487.62,-143.88C472.46,-134.72 453.59,-123.34 437.26,-113.48"/>
<polygon fill="grey" stroke="grey" stroke-width="2" points="438.86,-110.36 428.49,-108.19 435.24,-116.35 438.86,-110.36"/>
</g>
<!-- 7 -->
<g id="node8" class="node">
<title>7</title>
<path fill="none" stroke="#56d8c9" stroke-width="2" d="M494.5,-108C494.5,-108 459.5,-108 459.5,-108 453.5,-108 447.5,-102 447.5,-96 447.5,-96 447.5,-84 447.5,-84 447.5,-78 453.5,-72 459.5,-72 459.5,-72 494.5,-72 494.5,-72 500.5,-72 506.5,-78 506.5,-84 506.5,-84 506.5,-96 506.5,-96 506.5,-102 500.5,-108 494.5,-108"/>
<text text-anchor="middle" x="477" y="-87.5" font-family="sans" font-size="10.00">mapping</text>
</g>
<!-- 2&#45;&gt;7 -->
<g id="edge13" class="edge">
<title>2&#45;&gt;7</title>
<path fill="none" stroke="grey" stroke-width="2" d="M506.36,-143.7C501.87,-135.64 496.44,-125.89 491.48,-116.98"/>
<polygon fill="grey" stroke="grey" stroke-width="2" points="494.45,-115.14 486.53,-108.1 488.34,-118.54 494.45,-115.14"/>
</g>
<!-- 9 -->
<g id="node10" class="node">
<title>9</title>
<path fill="none" stroke="#56d8c9" stroke-width="2" d="M571.5,-108C571.5,-108 536.5,-108 536.5,-108 530.5,-108 524.5,-102 524.5,-96 524.5,-96 524.5,-84 524.5,-84 524.5,-78 530.5,-72 536.5,-72 536.5,-72 571.5,-72 571.5,-72 577.5,-72 583.5,-78 583.5,-84 583.5,-84 583.5,-96 583.5,-96 583.5,-102 577.5,-108 571.5,-108"/>
<text text-anchor="middle" x="554" y="-87.5" font-family="sans" font-size="10.00">mapping</text>
</g>
<!-- 2&#45;&gt;9 -->
<g id="edge15" class="edge">
<title>2&#45;&gt;9</title>
<path fill="none" stroke="grey" stroke-width="2" d="M525.39,-143.7C529.76,-135.64 535.06,-125.89 539.9,-116.98"/>
<polygon fill="grey" stroke="grey" stroke-width="2" points="543.02,-118.56 544.71,-108.1 536.87,-115.22 543.02,-118.56"/>
</g>
<!-- 11 -->
<g id="node12" class="node">
<title>11</title>
<path fill="none" stroke="#56d8c9" stroke-width="2" d="M648.5,-108C648.5,-108 613.5,-108 613.5,-108 607.5,-108 601.5,-102 601.5,-96 601.5,-96 601.5,-84 601.5,-84 601.5,-78 607.5,-72 613.5,-72 613.5,-72 648.5,-72 648.5,-72 654.5,-72 660.5,-78 660.5,-84 660.5,-84 660.5,-96 660.5,-96 660.5,-102 654.5,-108 648.5,-108"/>
<text text-anchor="middle" x="631" y="-87.5" font-family="sans" font-size="10.00">mapping</text>
</g>
<!-- 2&#45;&gt;11 -->
<g id="edge17" class="edge">
<title>2&#45;&gt;11</title>
<path fill="none" stroke="grey" stroke-width="2" d="M544.13,-143.88C559.17,-134.72 577.87,-123.34 594.06,-113.48"/>
<polygon fill="grey" stroke="grey" stroke-width="2" points="596.04,-116.38 602.76,-108.19 592.4,-110.4 596.04,-116.38"/>
</g>
<!-- 13 -->
<g id="node14" class="node">
<title>13</title>
<path fill="none" stroke="#56d8c9" stroke-width="2" d="M725.5,-108C725.5,-108 690.5,-108 690.5,-108 684.5,-108 678.5,-102 678.5,-96 678.5,-96 678.5,-84 678.5,-84 678.5,-78 684.5,-72 690.5,-72 690.5,-72 725.5,-72 725.5,-72 731.5,-72 737.5,-78 737.5,-84 737.5,-84 737.5,-96 737.5,-96 737.5,-102 731.5,-108 725.5,-108"/>
<text text-anchor="middle" x="708" y="-87.5" font-family="sans" font-size="10.00">mapping</text>
</g>
<!-- 2&#45;&gt;13 -->
<g id="edge19" class="edge">
<title>2&#45;&gt;13</title>
<path fill="none" stroke="grey" stroke-width="2" d="M545.68,-147.68C548.81,-146.39 551.96,-145.14 555,-144 604.76,-125.36 619.24,-126.64 669,-108 669.1,-107.96 669.19,-107.93 669.29,-107.89"/>
<polygon fill="grey" stroke="grey" stroke-width="2" points="670.31,-111.25 678.32,-104.32 667.74,-104.74 670.31,-111.25"/>
</g>
<!-- 3 -->
<g id="node4" class="node">
<title>3</title>
<path fill="none" stroke="#56a2d8" stroke-width="2" d="M532,-252C532,-252 500,-252 500,-252 494,-252 488,-246 488,-240 488,-240 488,-228 488,-228 488,-222 494,-216 500,-216 500,-216 532,-216 532,-216 538,-216 544,-222 544,-228 544,-228 544,-240 544,-240 544,-246 538,-252 532,-252"/>
<text text-anchor="middle" x="516" y="-231.5" font-family="sans" font-size="10.00">genome</text>
</g>
<!-- 3&#45;&gt;2 -->
<g id="edge10" class="edge">
<title>3&#45;&gt;2</title>
<path fill="none" stroke="grey" stroke-width="2" d="M516,-215.7C516,-207.98 516,-198.71 516,-190.11"/>
<polygon fill="grey" stroke="grey" stroke-width="2" points="519.5,-190.1 516,-180.1 512.5,-190.1 519.5,-190.1"/>
</g>
<!-- 4 -->
<g id="node5" class="node">
<title>4</title>
<path fill="none" stroke="#56d87b" stroke-width="2" d="M132,-180C132,-180 12,-180 12,-180 6,-180 0,-174 0,-168 0,-168 0,-156 0,-156 0,-150 6,-144 12,-144 12,-144 132,-144 132,-144 138,-144 144,-150 144,-156 144,-156 144,-168 144,-168 144,-174 138,-180 132,-180"/>
<text text-anchor="middle" x="72" y="-165" font-family="sans" font-size="10.00">trimming</text>
<text text-anchor="middle" x="72" y="-154" font-family="sans" font-size="10.00">echantillon: SRR10379721</text>
</g>
<!-- 4&#45;&gt;1 -->
<g id="edge9" class="edge">
<title>4&#45;&gt;1</title>
<path fill="none" stroke="grey" stroke-width="2" d="M133.08,-143.97C179.9,-130.91 243.13,-113.27 283.5,-102.02"/>
<polygon fill="grey" stroke="grey" stroke-width="2" points="284.55,-105.36 293.25,-99.3 282.67,-98.61 284.55,-105.36"/>
</g>
<!-- 5&#45;&gt;0 -->
<g id="edge2" class="edge">
<title>5&#45;&gt;0</title>
<path fill="none" stroke="grey" stroke-width="2" d="M429.69,-75.5C453.98,-64.46 488.52,-48.76 515.03,-36.71"/>
<polygon fill="grey" stroke="grey" stroke-width="2" points="516.74,-39.78 524.4,-32.46 513.85,-33.41 516.74,-39.78"/>
</g>
<!-- 6 -->
<g id="node7" class="node">
<title>6</title>
<path fill="none" stroke="#56d87b" stroke-width="2" d="M294,-180C294,-180 174,-180 174,-180 168,-180 162,-174 162,-168 162,-168 162,-156 162,-156 162,-150 168,-144 174,-144 174,-144 294,-144 294,-144 300,-144 306,-150 306,-156 306,-156 306,-168 306,-168 306,-174 300,-180 294,-180"/>
<text text-anchor="middle" x="234" y="-165" font-family="sans" font-size="10.00">trimming</text>
<text text-anchor="middle" x="234" y="-154" font-family="sans" font-size="10.00">echantillon: SRR10379722</text>
</g>
<!-- 6&#45;&gt;5 -->
<g id="edge12" class="edge">
<title>6&#45;&gt;5</title>
<path fill="none" stroke="grey" stroke-width="2" d="M275.25,-143.98C300.13,-133.66 332.43,-120.19 361,-108 361.09,-107.96 361.19,-107.92 361.28,-107.88"/>
<polygon fill="grey" stroke="grey" stroke-width="2" points="362.4,-111.21 370.21,-104.04 359.64,-104.78 362.4,-111.21"/>
</g>
<!-- 7&#45;&gt;0 -->
<g id="edge3" class="edge">
<title>7&#45;&gt;0</title>
<path fill="none" stroke="grey" stroke-width="2" d="M496.03,-71.7C505.54,-63.05 517.21,-52.45 527.57,-43.03"/>
<polygon fill="grey" stroke="grey" stroke-width="2" points="530.14,-45.42 535.19,-36.1 525.43,-40.24 530.14,-45.42"/>
</g>
<!-- 8 -->
<g id="node9" class="node">
<title>8</title>
<path fill="none" stroke="#56d87b" stroke-width="2" d="M456,-180C456,-180 336,-180 336,-180 330,-180 324,-174 324,-168 324,-168 324,-156 324,-156 324,-150 330,-144 336,-144 336,-144 456,-144 456,-144 462,-144 468,-150 468,-156 468,-156 468,-168 468,-168 468,-174 462,-180 456,-180"/>
<text text-anchor="middle" x="396" y="-165" font-family="sans" font-size="10.00">trimming</text>
<text text-anchor="middle" x="396" y="-154" font-family="sans" font-size="10.00">echantillon: SRR10379723</text>
</g>
<!-- 8&#45;&gt;7 -->
<g id="edge14" class="edge">
<title>8&#45;&gt;7</title>
<path fill="none" stroke="grey" stroke-width="2" d="M416.02,-143.7C426.13,-134.97 438.54,-124.24 449.52,-114.75"/>
<polygon fill="grey" stroke="grey" stroke-width="2" points="451.93,-117.29 457.21,-108.1 447.35,-111.99 451.93,-117.29"/>
</g>
<!-- 9&#45;&gt;0 -->
<g id="edge4" class="edge">
<title>9&#45;&gt;0</title>
<path fill="none" stroke="grey" stroke-width="2" d="M554,-71.7C554,-63.98 554,-54.71 554,-46.11"/>
<polygon fill="grey" stroke="grey" stroke-width="2" points="557.5,-46.1 554,-36.1 550.5,-46.1 557.5,-46.1"/>
</g>
<!-- 10 -->
<g id="node11" class="node">
<title>10</title>
<path fill="none" stroke="#56d87b" stroke-width="2" d="M696,-180C696,-180 576,-180 576,-180 570,-180 564,-174 564,-168 564,-168 564,-156 564,-156 564,-150 570,-144 576,-144 576,-144 696,-144 696,-144 702,-144 708,-150 708,-156 708,-156 708,-168 708,-168 708,-174 702,-180 696,-180"/>
<text text-anchor="middle" x="636" y="-165" font-family="sans" font-size="10.00">trimming</text>
<text text-anchor="middle" x="636" y="-154" font-family="sans" font-size="10.00">echantillon: SRR10379724</text>
</g>
<!-- 10&#45;&gt;9 -->
<g id="edge16" class="edge">
<title>10&#45;&gt;9</title>
<path fill="none" stroke="grey" stroke-width="2" d="M615.73,-143.7C605.5,-134.97 592.94,-124.24 581.82,-114.75"/>
<polygon fill="grey" stroke="grey" stroke-width="2" points="583.91,-111.94 574.04,-108.1 579.37,-117.26 583.91,-111.94"/>
</g>
<!-- 11&#45;&gt;0 -->
<g id="edge5" class="edge">
<title>11&#45;&gt;0</title>
<path fill="none" stroke="grey" stroke-width="2" d="M611.97,-71.7C602.46,-63.05 590.79,-52.45 580.43,-43.03"/>
<polygon fill="grey" stroke="grey" stroke-width="2" points="582.57,-40.24 572.81,-36.1 577.86,-45.42 582.57,-40.24"/>
</g>
<!-- 12 -->
<g id="node13" class="node">
<title>12</title>
<path fill="none" stroke="#56d87b" stroke-width="2" d="M858,-180C858,-180 738,-180 738,-180 732,-180 726,-174 726,-168 726,-168 726,-156 726,-156 726,-150 732,-144 738,-144 738,-144 858,-144 858,-144 864,-144 870,-150 870,-156 870,-156 870,-168 870,-168 870,-174 864,-180 858,-180"/>
<text text-anchor="middle" x="798" y="-165" font-family="sans" font-size="10.00">trimming</text>
<text text-anchor="middle" x="798" y="-154" font-family="sans" font-size="10.00">echantillon: SRR10379725</text>
</g>
<!-- 12&#45;&gt;11 -->
<g id="edge18" class="edge">
<title>12&#45;&gt;11</title>
<path fill="none" stroke="grey" stroke-width="2" d="M755.45,-143.9C732.4,-134.55 703.24,-122.59 670.24,-108.48"/>
<polygon fill="grey" stroke="grey" stroke-width="2" points="671.4,-105.17 660.83,-104.45 668.64,-111.61 671.4,-105.17"/>
</g>
<!-- 13&#45;&gt;0 -->
<g id="edge6" class="edge">
<title>13&#45;&gt;0</title>
<path fill="none" stroke="grey" stroke-width="2" d="M678.31,-75.5C654.02,-64.46 619.48,-48.76 592.97,-36.71"/>
<polygon fill="grey" stroke="grey" stroke-width="2" points="594.15,-33.41 583.6,-32.46 591.26,-39.78 594.15,-33.41"/>
</g>
<!-- 14 -->
<g id="node15" class="node">
<title>14</title>
<path fill="none" stroke="#56d87b" stroke-width="2" d="M1020,-180C1020,-180 900,-180 900,-180 894,-180 888,-174 888,-168 888,-168 888,-156 888,-156 888,-150 894,-144 900,-144 900,-144 1020,-144 1020,-144 1026,-144 1032,-150 1032,-156 1032,-156 1032,-168 1032,-168 1032,-174 1026,-180 1020,-180"/>
<text text-anchor="middle" x="960" y="-165" font-family="sans" font-size="10.00">trimming</text>
<text text-anchor="middle" x="960" y="-154" font-family="sans" font-size="10.00">echantillon: SRR10379726</text>
</g>
<!-- 14&#45;&gt;13 -->
<g id="edge20" class="edge">
<title>14&#45;&gt;13</title>
<path fill="none" stroke="grey" stroke-width="2" d="M887.75,-144.39C836.68,-132.38 772.89,-116.79 747,-108 746.9,-107.97 746.81,-107.93 746.71,-107.9"/>
<polygon fill="grey" stroke="grey" stroke-width="2" points="748.2,-104.72 737.61,-104.52 745.76,-111.28 748.2,-104.72"/>
</g>
<!-- 15 -->
<g id="node16" class="node">
<title>15</title>
<path fill="none" stroke="#c6d856" stroke-width="2" d="M836,-108C836,-108 768,-108 768,-108 762,-108 756,-102 756,-96 756,-96 756,-84 756,-84 756,-78 762,-72 768,-72 768,-72 836,-72 836,-72 842,-72 848,-78 848,-84 848,-84 848,-96 848,-96 848,-102 842,-108 836,-108"/>
<text text-anchor="middle" x="802" y="-87.5" font-family="sans" font-size="10.00">annotation_gen</text>
</g>
<!-- 15&#45;&gt;0 -->
<g id="edge7" class="edge">
<title>15&#45;&gt;0</title>
<path fill="none" stroke="grey" stroke-width="2" d="M755.88,-74.9C752.54,-73.91 749.22,-72.93 746,-72 693.41,-56.76 632.42,-40.1 593.54,-29.6"/>
<polygon fill="grey" stroke="grey" stroke-width="2" points="594.23,-26.16 583.67,-26.94 592.41,-32.92 594.23,-26.16"/>
</g>
</g>
</svg>
