<?xml version="1.0" encoding="UTF-8" standalone="no"?>
<!DOCTYPE svg PUBLIC "-//W3C//DTD SVG 1.1//EN"
 "http://www.w3.org/Graphics/SVG/1.1/DTD/svg11.dtd">
<!-- Generated by graphviz version 2.43.0 (0)
 -->
<!-- Title: snakemake_dag Pages: 1 -->
<svg width="928pt" height="548pt"
 viewBox="0.00 0.00 928.00 548.00" xmlns="http://www.w3.org/2000/svg" xmlns:xlink="http://www.w3.org/1999/xlink">
<g id="graph0" class="graph" transform="scale(1 1) rotate(0) translate(4 544)">
<title>snakemake_dag</title>
<polygon fill="white" stroke="transparent" points="-4,4 -4,-544 924,-544 924,4 -4,4"/>
<!-- 0 -->
<g id="node1" class="node">
<title>0</title>
<path fill="none" stroke="#56b1d8" stroke-width="2" d="M481,-36C481,-36 451,-36 451,-36 445,-36 439,-30 439,-24 439,-24 439,-12 439,-12 439,-6 445,0 451,0 451,0 481,0 481,0 487,0 493,-6 493,-12 493,-12 493,-24 493,-24 493,-30 487,-36 481,-36"/>
<text text-anchor="middle" x="466" y="-15.5" font-family="sans" font-size="10.00">all</text>
</g>
<!-- 1 -->
<g id="node2" class="node">
<title>1</title>
<path fill="none" stroke="#9fd856" stroke-width="2" d="M482.5,-108C482.5,-108 449.5,-108 449.5,-108 443.5,-108 437.5,-102 437.5,-96 437.5,-96 437.5,-84 437.5,-84 437.5,-78 443.5,-72 449.5,-72 449.5,-72 482.5,-72 482.5,-72 488.5,-72 494.5,-78 494.5,-84 494.5,-84 494.5,-96 494.5,-96 494.5,-102 488.5,-108 482.5,-108"/>
<text text-anchor="middle" x="466" y="-87.5" font-family="sans" font-size="10.00">analysis</text>
</g>
<!-- 1&#45;&gt;0 -->
<g id="edge1" class="edge">
<title>1&#45;&gt;0</title>
<path fill="none" stroke="grey" stroke-width="2" d="M466,-71.7C466,-63.98 466,-54.71 466,-46.11"/>
<polygon fill="grey" stroke="grey" stroke-width="2" points="469.5,-46.1 466,-36.1 462.5,-46.1 469.5,-46.1"/>
</g>
<!-- 2 -->
<g id="node3" class="node">
<title>2</title>
<path fill="none" stroke="#56d89a" stroke-width="2" stroke-dasharray="5,2" d="M483.5,-180C483.5,-180 448.5,-180 448.5,-180 442.5,-180 436.5,-174 436.5,-168 436.5,-168 436.5,-156 436.5,-156 436.5,-150 442.5,-144 448.5,-144 448.5,-144 483.5,-144 483.5,-144 489.5,-144 495.5,-150 495.5,-156 495.5,-156 495.5,-168 495.5,-168 495.5,-174 489.5,-180 483.5,-180"/>
<text text-anchor="middle" x="466" y="-159.5" font-family="sans" font-size="10.00">counting</text>
</g>
<!-- 2&#45;&gt;1 -->
<g id="edge2" class="edge">
<title>2&#45;&gt;1</title>
<path fill="none" stroke="grey" stroke-width="2" d="M466,-143.7C466,-135.98 466,-126.71 466,-118.11"/>
<polygon fill="grey" stroke="grey" stroke-width="2" points="469.5,-118.1 466,-108.1 462.5,-118.1 469.5,-118.1"/>
</g>
<!-- 3 -->
<g id="node4" class="node">
<title>3</title>
<path fill="none" stroke="#d8b456" stroke-width="2" stroke-dasharray="5,2" d="M169.5,-324C169.5,-324 130.5,-324 130.5,-324 124.5,-324 118.5,-318 118.5,-312 118.5,-312 118.5,-300 118.5,-300 118.5,-294 124.5,-288 130.5,-288 130.5,-288 169.5,-288 169.5,-288 175.5,-288 181.5,-294 181.5,-300 181.5,-300 181.5,-312 181.5,-312 181.5,-318 175.5,-324 169.5,-324"/>
<text text-anchor="middle" x="150" y="-303.5" font-family="sans" font-size="10.00">bamming</text>
</g>
<!-- 3&#45;&gt;2 -->
<g id="edge3" class="edge">
<title>3&#45;&gt;2</title>
<path fill="none" stroke="grey" stroke-width="2" d="M153.78,-287.99C159.24,-267.58 171.39,-233.87 195,-216 230.92,-188.81 360.17,-172.98 426.34,-166.48"/>
<polygon fill="grey" stroke="grey" stroke-width="2" points="426.78,-169.96 436.4,-165.52 426.11,-162.99 426.78,-169.96"/>
</g>
<!-- 29 -->
<g id="node30" class="node">
<title>29</title>
<path fill="none" stroke="#ced856" stroke-width="2" stroke-dasharray="5,2" d="M135.5,-252C135.5,-252 100.5,-252 100.5,-252 94.5,-252 88.5,-246 88.5,-240 88.5,-240 88.5,-228 88.5,-228 88.5,-222 94.5,-216 100.5,-216 100.5,-216 135.5,-216 135.5,-216 141.5,-216 147.5,-222 147.5,-228 147.5,-228 147.5,-240 147.5,-240 147.5,-246 141.5,-252 135.5,-252"/>
<text text-anchor="middle" x="118" y="-231.5" font-family="sans" font-size="10.00">mapping</text>
</g>
<!-- 3&#45;&gt;29 -->
<g id="edge41" class="edge">
<title>3&#45;&gt;29</title>
<path fill="none" stroke="grey" stroke-width="2" d="M142.09,-287.7C138.45,-279.73 134.05,-270.1 130.01,-261.26"/>
<polygon fill="grey" stroke="grey" stroke-width="2" points="133.16,-259.74 125.82,-252.1 126.79,-262.65 133.16,-259.74"/>
</g>
<!-- 4 -->
<g id="node5" class="node">
<title>4</title>
<path fill="none" stroke="#d85656" stroke-width="2" stroke-dasharray="5,2" d="M169,-396C169,-396 131,-396 131,-396 125,-396 119,-390 119,-384 119,-384 119,-372 119,-372 119,-366 125,-360 131,-360 131,-360 169,-360 169,-360 175,-360 181,-366 181,-372 181,-372 181,-384 181,-384 181,-390 175,-396 169,-396"/>
<text text-anchor="middle" x="150" y="-375.5" font-family="sans" font-size="10.00">samming</text>
</g>
<!-- 4&#45;&gt;3 -->
<g id="edge16" class="edge">
<title>4&#45;&gt;3</title>
<path fill="none" stroke="grey" stroke-width="2" d="M150,-359.7C150,-351.98 150,-342.71 150,-334.11"/>
<polygon fill="grey" stroke="grey" stroke-width="2" points="153.5,-334.1 150,-324.1 146.5,-334.1 153.5,-334.1"/>
</g>
<!-- 5 -->
<g id="node6" class="node">
<title>5</title>
<path fill="none" stroke="#70d856" stroke-width="2" stroke-dasharray="5,2" d="M127,-468C127,-468 89,-468 89,-468 83,-468 77,-462 77,-456 77,-456 77,-444 77,-444 77,-438 83,-432 89,-432 89,-432 127,-432 127,-432 133,-432 139,-438 139,-444 139,-444 139,-456 139,-456 139,-462 133,-468 127,-468"/>
<text text-anchor="middle" x="108" y="-447.5" font-family="sans" font-size="10.00">trimming</text>
</g>
<!-- 5&#45;&gt;4 -->
<g id="edge17" class="edge">
<title>5&#45;&gt;4</title>
<path fill="none" stroke="grey" stroke-width="2" d="M118.38,-431.7C123.26,-423.56 129.19,-413.69 134.58,-404.7"/>
<polygon fill="grey" stroke="grey" stroke-width="2" points="137.59,-406.48 139.74,-396.1 131.59,-402.88 137.59,-406.48"/>
</g>
<!-- 6 -->
<g id="node7" class="node">
<title>6</title>
<path fill="none" stroke="#5682d8" stroke-width="2" stroke-dasharray="5,2" d="M114,-540C114,-540 12,-540 12,-540 6,-540 0,-534 0,-528 0,-528 0,-516 0,-516 0,-510 6,-504 12,-504 12,-504 114,-504 114,-504 120,-504 126,-510 126,-516 126,-516 126,-528 126,-528 126,-534 120,-540 114,-540"/>
<text text-anchor="middle" x="63" y="-525" font-family="sans" font-size="10.00">downloading</text>
<text text-anchor="middle" x="63" y="-514" font-family="sans" font-size="10.00">sample: SRR10379721</text>
</g>
<!-- 6&#45;&gt;5 -->
<g id="edge19" class="edge">
<title>6&#45;&gt;5</title>
<path fill="none" stroke="grey" stroke-width="2" d="M74.12,-503.7C79.36,-495.56 85.7,-485.69 91.48,-476.7"/>
<polygon fill="grey" stroke="grey" stroke-width="2" points="94.54,-478.41 97,-468.1 88.65,-474.62 94.54,-478.41"/>
</g>
<!-- 7 -->
<g id="node8" class="node">
<title>7</title>
<path fill="none" stroke="#56d8c9" stroke-width="2" stroke-dasharray="5,2" d="M477.5,-468C477.5,-468 442.5,-468 442.5,-468 436.5,-468 430.5,-462 430.5,-456 430.5,-456 430.5,-444 430.5,-444 430.5,-438 436.5,-432 442.5,-432 442.5,-432 477.5,-432 477.5,-432 483.5,-432 489.5,-438 489.5,-444 489.5,-444 489.5,-456 489.5,-456 489.5,-462 483.5,-468 477.5,-468"/>
<text text-anchor="middle" x="460" y="-447.5" font-family="sans" font-size="10.00">indexing</text>
</g>
<!-- 7&#45;&gt;4 -->
<g id="edge18" class="edge">
<title>7&#45;&gt;4</title>
<path fill="none" stroke="grey" stroke-width="2" d="M430.45,-439.09C422.55,-436.61 413.99,-434.07 406,-432 328.71,-411.99 308.16,-412.3 230,-396 217.4,-393.37 203.7,-390.48 191.25,-387.83"/>
<polygon fill="grey" stroke="grey" stroke-width="2" points="191.65,-384.34 181.14,-385.68 190.19,-391.18 191.65,-384.34"/>
</g>
<!-- 10 -->
<g id="node11" class="node">
<title>10</title>
<path fill="none" stroke="#d85656" stroke-width="2" stroke-dasharray="5,2" d="M289,-396C289,-396 251,-396 251,-396 245,-396 239,-390 239,-384 239,-384 239,-372 239,-372 239,-366 245,-360 251,-360 251,-360 289,-360 289,-360 295,-360 301,-366 301,-372 301,-372 301,-384 301,-384 301,-390 295,-396 289,-396"/>
<text text-anchor="middle" x="270" y="-375.5" font-family="sans" font-size="10.00">samming</text>
</g>
<!-- 7&#45;&gt;10 -->
<g id="edge23" class="edge">
<title>7&#45;&gt;10</title>
<path fill="none" stroke="grey" stroke-width="2" d="M430.31,-438.06C398.16,-426.22 346.67,-407.25 310.75,-394.01"/>
<polygon fill="grey" stroke="grey" stroke-width="2" points="311.65,-390.61 301.06,-390.44 309.23,-397.18 311.65,-390.61"/>
</g>
<!-- 14 -->
<g id="node15" class="node">
<title>14</title>
<path fill="none" stroke="#d85656" stroke-width="2" stroke-dasharray="5,2" d="M399,-396C399,-396 361,-396 361,-396 355,-396 349,-390 349,-384 349,-384 349,-372 349,-372 349,-366 355,-360 361,-360 361,-360 399,-360 399,-360 405,-360 411,-366 411,-372 411,-372 411,-384 411,-384 411,-390 405,-396 399,-396"/>
<text text-anchor="middle" x="380" y="-375.5" font-family="sans" font-size="10.00">samming</text>
</g>
<!-- 7&#45;&gt;14 -->
<g id="edge27" class="edge">
<title>7&#45;&gt;14</title>
<path fill="none" stroke="grey" stroke-width="2" d="M440.22,-431.7C430.25,-422.97 417.99,-412.24 407.14,-402.75"/>
<polygon fill="grey" stroke="grey" stroke-width="2" points="409.38,-400.06 399.55,-396.1 404.77,-405.32 409.38,-400.06"/>
</g>
<!-- 18 -->
<g id="node19" class="node">
<title>18</title>
<path fill="none" stroke="#d85656" stroke-width="2" stroke-dasharray="5,2" d="M514,-396C514,-396 476,-396 476,-396 470,-396 464,-390 464,-384 464,-384 464,-372 464,-372 464,-366 470,-360 476,-360 476,-360 514,-360 514,-360 520,-360 526,-366 526,-372 526,-372 526,-384 526,-384 526,-390 520,-396 514,-396"/>
<text text-anchor="middle" x="495" y="-375.5" font-family="sans" font-size="10.00">samming</text>
</g>
<!-- 7&#45;&gt;18 -->
<g id="edge31" class="edge">
<title>7&#45;&gt;18</title>
<path fill="none" stroke="grey" stroke-width="2" d="M468.65,-431.7C472.64,-423.73 477.45,-414.1 481.87,-405.26"/>
<polygon fill="grey" stroke="grey" stroke-width="2" points="485.11,-406.61 486.45,-396.1 478.85,-403.48 485.11,-406.61"/>
</g>
<!-- 22 -->
<g id="node23" class="node">
<title>22</title>
<path fill="none" stroke="#d85656" stroke-width="2" stroke-dasharray="5,2" d="M644,-396C644,-396 606,-396 606,-396 600,-396 594,-390 594,-384 594,-384 594,-372 594,-372 594,-366 600,-360 606,-360 606,-360 644,-360 644,-360 650,-360 656,-366 656,-372 656,-372 656,-384 656,-384 656,-390 650,-396 644,-396"/>
<text text-anchor="middle" x="625" y="-375.5" font-family="sans" font-size="10.00">samming</text>
</g>
<!-- 7&#45;&gt;22 -->
<g id="edge35" class="edge">
<title>7&#45;&gt;22</title>
<path fill="none" stroke="grey" stroke-width="2" d="M489.88,-436.32C516.33,-425.1 555.16,-408.63 584.42,-396.22"/>
<polygon fill="grey" stroke="grey" stroke-width="2" points="586.1,-399.3 593.94,-392.18 583.37,-392.86 586.1,-399.3"/>
</g>
<!-- 26 -->
<g id="node27" class="node">
<title>26</title>
<path fill="none" stroke="#d85656" stroke-width="2" stroke-dasharray="5,2" d="M731,-396C731,-396 693,-396 693,-396 687,-396 681,-390 681,-384 681,-384 681,-372 681,-372 681,-366 687,-360 693,-360 693,-360 731,-360 731,-360 737,-360 743,-366 743,-372 743,-372 743,-384 743,-384 743,-390 737,-396 731,-396"/>
<text text-anchor="middle" x="712" y="-375.5" font-family="sans" font-size="10.00">samming</text>
</g>
<!-- 7&#45;&gt;26 -->
<g id="edge39" class="edge">
<title>7&#45;&gt;26</title>
<path fill="none" stroke="grey" stroke-width="2" d="M489.6,-439.27C497.49,-436.78 506.04,-434.2 514,-432 580.5,-413.63 598.9,-415.76 665,-396 666.93,-395.42 668.9,-394.81 670.89,-394.17"/>
<polygon fill="grey" stroke="grey" stroke-width="2" points="672.45,-397.34 680.82,-390.84 670.22,-390.7 672.45,-397.34"/>
</g>
<!-- 8 -->
<g id="node9" class="node">
<title>8</title>
<path fill="none" stroke="#d88556" stroke-width="2" stroke-dasharray="5,2" d="M476,-540C476,-540 444,-540 444,-540 438,-540 432,-534 432,-528 432,-528 432,-516 432,-516 432,-510 438,-504 444,-504 444,-504 476,-504 476,-504 482,-504 488,-510 488,-516 488,-516 488,-528 488,-528 488,-534 482,-540 476,-540"/>
<text text-anchor="middle" x="460" y="-519.5" font-family="sans" font-size="10.00">genome</text>
</g>
<!-- 8&#45;&gt;7 -->
<g id="edge20" class="edge">
<title>8&#45;&gt;7</title>
<path fill="none" stroke="grey" stroke-width="2" d="M460,-503.7C460,-495.98 460,-486.71 460,-478.11"/>
<polygon fill="grey" stroke="grey" stroke-width="2" points="463.5,-478.1 460,-468.1 456.5,-478.1 463.5,-478.1"/>
</g>
<!-- 9 -->
<g id="node10" class="node">
<title>9</title>
<path fill="none" stroke="#d8b456" stroke-width="2" stroke-dasharray="5,2" d="M289.5,-324C289.5,-324 250.5,-324 250.5,-324 244.5,-324 238.5,-318 238.5,-312 238.5,-312 238.5,-300 238.5,-300 238.5,-294 244.5,-288 250.5,-288 250.5,-288 289.5,-288 289.5,-288 295.5,-288 301.5,-294 301.5,-300 301.5,-300 301.5,-312 301.5,-312 301.5,-318 295.5,-324 289.5,-324"/>
<text text-anchor="middle" x="270" y="-303.5" font-family="sans" font-size="10.00">bamming</text>
</g>
<!-- 9&#45;&gt;2 -->
<g id="edge4" class="edge">
<title>9&#45;&gt;2</title>
<path fill="none" stroke="grey" stroke-width="2" d="M273.59,-287.82C278.63,-267.88 289.66,-235.26 311,-216 343.14,-186.99 391.88,-173.74 426.1,-167.76"/>
<polygon fill="grey" stroke="grey" stroke-width="2" points="426.9,-171.18 436.22,-166.13 425.79,-164.27 426.9,-171.18"/>
</g>
<!-- 30 -->
<g id="node31" class="node">
<title>30</title>
<path fill="none" stroke="#ced856" stroke-width="2" stroke-dasharray="5,2" d="M251.5,-252C251.5,-252 216.5,-252 216.5,-252 210.5,-252 204.5,-246 204.5,-240 204.5,-240 204.5,-228 204.5,-228 204.5,-222 210.5,-216 216.5,-216 216.5,-216 251.5,-216 251.5,-216 257.5,-216 263.5,-222 263.5,-228 263.5,-228 263.5,-240 263.5,-240 263.5,-246 257.5,-252 251.5,-252"/>
<text text-anchor="middle" x="234" y="-231.5" font-family="sans" font-size="10.00">mapping</text>
</g>
<!-- 9&#45;&gt;30 -->
<g id="edge42" class="edge">
<title>9&#45;&gt;30</title>
<path fill="none" stroke="grey" stroke-width="2" d="M261.1,-287.7C257,-279.73 252.05,-270.1 247.51,-261.26"/>
<polygon fill="grey" stroke="grey" stroke-width="2" points="250.48,-259.4 242.8,-252.1 244.26,-262.6 250.48,-259.4"/>
</g>
<!-- 10&#45;&gt;9 -->
<g id="edge21" class="edge">
<title>10&#45;&gt;9</title>
<path fill="none" stroke="grey" stroke-width="2" d="M270,-359.7C270,-351.98 270,-342.71 270,-334.11"/>
<polygon fill="grey" stroke="grey" stroke-width="2" points="273.5,-334.1 270,-324.1 266.5,-334.1 273.5,-334.1"/>
</g>
<!-- 11 -->
<g id="node12" class="node">
<title>11</title>
<path fill="none" stroke="#70d856" stroke-width="2" stroke-dasharray="5,2" d="M239,-468C239,-468 201,-468 201,-468 195,-468 189,-462 189,-456 189,-456 189,-444 189,-444 189,-438 195,-432 201,-432 201,-432 239,-432 239,-432 245,-432 251,-438 251,-444 251,-444 251,-456 251,-456 251,-462 245,-468 239,-468"/>
<text text-anchor="middle" x="220" y="-447.5" font-family="sans" font-size="10.00">trimming</text>
</g>
<!-- 11&#45;&gt;10 -->
<g id="edge22" class="edge">
<title>11&#45;&gt;10</title>
<path fill="none" stroke="grey" stroke-width="2" d="M232.36,-431.7C238.23,-423.47 245.37,-413.48 251.84,-404.42"/>
<polygon fill="grey" stroke="grey" stroke-width="2" points="254.82,-406.28 257.78,-396.1 249.12,-402.21 254.82,-406.28"/>
</g>
<!-- 12 -->
<g id="node13" class="node">
<title>12</title>
<path fill="none" stroke="#5682d8" stroke-width="2" stroke-dasharray="5,2" d="M258,-540C258,-540 156,-540 156,-540 150,-540 144,-534 144,-528 144,-528 144,-516 144,-516 144,-510 150,-504 156,-504 156,-504 258,-504 258,-504 264,-504 270,-510 270,-516 270,-516 270,-528 270,-528 270,-534 264,-540 258,-540"/>
<text text-anchor="middle" x="207" y="-525" font-family="sans" font-size="10.00">downloading</text>
<text text-anchor="middle" x="207" y="-514" font-family="sans" font-size="10.00">sample: SRR10379722</text>
</g>
<!-- 12&#45;&gt;11 -->
<g id="edge24" class="edge">
<title>12&#45;&gt;11</title>
<path fill="none" stroke="grey" stroke-width="2" d="M210.21,-503.7C211.65,-495.98 213.37,-486.71 214.96,-478.11"/>
<polygon fill="grey" stroke="grey" stroke-width="2" points="218.44,-478.58 216.82,-468.1 211.56,-477.3 218.44,-478.58"/>
</g>
<!-- 13 -->
<g id="node14" class="node">
<title>13</title>
<path fill="none" stroke="#d8b456" stroke-width="2" stroke-dasharray="5,2" d="M399.5,-324C399.5,-324 360.5,-324 360.5,-324 354.5,-324 348.5,-318 348.5,-312 348.5,-312 348.5,-300 348.5,-300 348.5,-294 354.5,-288 360.5,-288 360.5,-288 399.5,-288 399.5,-288 405.5,-288 411.5,-294 411.5,-300 411.5,-300 411.5,-312 411.5,-312 411.5,-318 405.5,-324 399.5,-324"/>
<text text-anchor="middle" x="380" y="-303.5" font-family="sans" font-size="10.00">bamming</text>
</g>
<!-- 13&#45;&gt;2 -->
<g id="edge5" class="edge">
<title>13&#45;&gt;2</title>
<path fill="none" stroke="grey" stroke-width="2" d="M388.11,-287.85C396.95,-269.61 411.87,-240.13 427,-216 432.83,-206.71 439.77,-196.93 446.17,-188.34"/>
<polygon fill="grey" stroke="grey" stroke-width="2" points="449.08,-190.29 452.33,-180.21 443.5,-186.07 449.08,-190.29"/>
</g>
<!-- 31 -->
<g id="node32" class="node">
<title>31</title>
<path fill="none" stroke="#ced856" stroke-width="2" stroke-dasharray="5,2" d="M367.5,-252C367.5,-252 332.5,-252 332.5,-252 326.5,-252 320.5,-246 320.5,-240 320.5,-240 320.5,-228 320.5,-228 320.5,-222 326.5,-216 332.5,-216 332.5,-216 367.5,-216 367.5,-216 373.5,-216 379.5,-222 379.5,-228 379.5,-228 379.5,-240 379.5,-240 379.5,-246 373.5,-252 367.5,-252"/>
<text text-anchor="middle" x="350" y="-231.5" font-family="sans" font-size="10.00">mapping</text>
</g>
<!-- 13&#45;&gt;31 -->
<g id="edge43" class="edge">
<title>13&#45;&gt;31</title>
<path fill="none" stroke="grey" stroke-width="2" d="M372.58,-287.7C369.21,-279.81 365.13,-270.3 361.38,-261.55"/>
<polygon fill="grey" stroke="grey" stroke-width="2" points="364.49,-259.92 357.33,-252.1 358.05,-262.67 364.49,-259.92"/>
</g>
<!-- 14&#45;&gt;13 -->
<g id="edge25" class="edge">
<title>14&#45;&gt;13</title>
<path fill="none" stroke="grey" stroke-width="2" d="M380,-359.7C380,-351.98 380,-342.71 380,-334.11"/>
<polygon fill="grey" stroke="grey" stroke-width="2" points="383.5,-334.1 380,-324.1 376.5,-334.1 383.5,-334.1"/>
</g>
<!-- 15 -->
<g id="node16" class="node">
<title>15</title>
<path fill="none" stroke="#70d856" stroke-width="2" stroke-dasharray="5,2" d="M385,-468C385,-468 347,-468 347,-468 341,-468 335,-462 335,-456 335,-456 335,-444 335,-444 335,-438 341,-432 347,-432 347,-432 385,-432 385,-432 391,-432 397,-438 397,-444 397,-444 397,-456 397,-456 397,-462 391,-468 385,-468"/>
<text text-anchor="middle" x="366" y="-447.5" font-family="sans" font-size="10.00">trimming</text>
</g>
<!-- 15&#45;&gt;14 -->
<g id="edge26" class="edge">
<title>15&#45;&gt;14</title>
<path fill="none" stroke="grey" stroke-width="2" d="M369.46,-431.7C371,-423.98 372.86,-414.71 374.58,-406.11"/>
<polygon fill="grey" stroke="grey" stroke-width="2" points="378.05,-406.6 376.58,-396.1 371.19,-405.22 378.05,-406.6"/>
</g>
<!-- 16 -->
<g id="node17" class="node">
<title>16</title>
<path fill="none" stroke="#5682d8" stroke-width="2" stroke-dasharray="5,2" d="M402,-540C402,-540 300,-540 300,-540 294,-540 288,-534 288,-528 288,-528 288,-516 288,-516 288,-510 294,-504 300,-504 300,-504 402,-504 402,-504 408,-504 414,-510 414,-516 414,-516 414,-528 414,-528 414,-534 408,-540 402,-540"/>
<text text-anchor="middle" x="351" y="-525" font-family="sans" font-size="10.00">downloading</text>
<text text-anchor="middle" x="351" y="-514" font-family="sans" font-size="10.00">sample: SRR10379723</text>
</g>
<!-- 16&#45;&gt;15 -->
<g id="edge28" class="edge">
<title>16&#45;&gt;15</title>
<path fill="none" stroke="grey" stroke-width="2" d="M354.71,-503.7C356.36,-495.98 358.35,-486.71 360.19,-478.11"/>
<polygon fill="grey" stroke="grey" stroke-width="2" points="363.66,-478.62 362.33,-468.1 356.82,-477.15 363.66,-478.62"/>
</g>
<!-- 17 -->
<g id="node18" class="node">
<title>17</title>
<path fill="none" stroke="#d8b456" stroke-width="2" stroke-dasharray="5,2" d="M514.5,-324C514.5,-324 475.5,-324 475.5,-324 469.5,-324 463.5,-318 463.5,-312 463.5,-312 463.5,-300 463.5,-300 463.5,-294 469.5,-288 475.5,-288 475.5,-288 514.5,-288 514.5,-288 520.5,-288 526.5,-294 526.5,-300 526.5,-300 526.5,-312 526.5,-312 526.5,-318 520.5,-324 514.5,-324"/>
<text text-anchor="middle" x="495" y="-303.5" font-family="sans" font-size="10.00">bamming</text>
</g>
<!-- 17&#45;&gt;2 -->
<g id="edge6" class="edge">
<title>17&#45;&gt;2</title>
<path fill="none" stroke="grey" stroke-width="2" d="M500.77,-287.84C505.98,-269.59 511.75,-240.1 504,-216 500.81,-206.08 495,-196.44 488.87,-188.17"/>
<polygon fill="grey" stroke="grey" stroke-width="2" points="491.42,-185.74 482.46,-180.08 485.93,-190.09 491.42,-185.74"/>
</g>
<!-- 32 -->
<g id="node33" class="node">
<title>32</title>
<path fill="none" stroke="#ced856" stroke-width="2" stroke-dasharray="5,2" d="M483.5,-252C483.5,-252 448.5,-252 448.5,-252 442.5,-252 436.5,-246 436.5,-240 436.5,-240 436.5,-228 436.5,-228 436.5,-222 442.5,-216 448.5,-216 448.5,-216 483.5,-216 483.5,-216 489.5,-216 495.5,-222 495.5,-228 495.5,-228 495.5,-240 495.5,-240 495.5,-246 489.5,-252 483.5,-252"/>
<text text-anchor="middle" x="466" y="-231.5" font-family="sans" font-size="10.00">mapping</text>
</g>
<!-- 17&#45;&gt;32 -->
<g id="edge44" class="edge">
<title>17&#45;&gt;32</title>
<path fill="none" stroke="grey" stroke-width="2" d="M487.83,-287.7C484.57,-279.81 480.63,-270.3 477,-261.55"/>
<polygon fill="grey" stroke="grey" stroke-width="2" points="480.15,-260 473.09,-252.1 473.68,-262.68 480.15,-260"/>
</g>
<!-- 18&#45;&gt;17 -->
<g id="edge29" class="edge">
<title>18&#45;&gt;17</title>
<path fill="none" stroke="grey" stroke-width="2" d="M495,-359.7C495,-351.98 495,-342.71 495,-334.11"/>
<polygon fill="grey" stroke="grey" stroke-width="2" points="498.5,-334.1 495,-324.1 491.5,-334.1 498.5,-334.1"/>
</g>
<!-- 19 -->
<g id="node20" class="node">
<title>19</title>
<path fill="none" stroke="#70d856" stroke-width="2" stroke-dasharray="5,2" d="M573,-468C573,-468 535,-468 535,-468 529,-468 523,-462 523,-456 523,-456 523,-444 523,-444 523,-438 529,-432 535,-432 535,-432 573,-432 573,-432 579,-432 585,-438 585,-444 585,-444 585,-456 585,-456 585,-462 579,-468 573,-468"/>
<text text-anchor="middle" x="554" y="-447.5" font-family="sans" font-size="10.00">trimming</text>
</g>
<!-- 19&#45;&gt;18 -->
<g id="edge30" class="edge">
<title>19&#45;&gt;18</title>
<path fill="none" stroke="grey" stroke-width="2" d="M539.42,-431.7C532.34,-423.3 523.72,-413.07 515.95,-403.86"/>
<polygon fill="grey" stroke="grey" stroke-width="2" points="518.54,-401.49 509.42,-396.1 513.19,-406.01 518.54,-401.49"/>
</g>
<!-- 20 -->
<g id="node21" class="node">
<title>20</title>
<path fill="none" stroke="#5682d8" stroke-width="2" stroke-dasharray="5,2" d="M620,-540C620,-540 518,-540 518,-540 512,-540 506,-534 506,-528 506,-528 506,-516 506,-516 506,-510 512,-504 518,-504 518,-504 620,-504 620,-504 626,-504 632,-510 632,-516 632,-516 632,-528 632,-528 632,-534 626,-540 620,-540"/>
<text text-anchor="middle" x="569" y="-525" font-family="sans" font-size="10.00">downloading</text>
<text text-anchor="middle" x="569" y="-514" font-family="sans" font-size="10.00">sample: SRR10379724</text>
</g>
<!-- 20&#45;&gt;19 -->
<g id="edge32" class="edge">
<title>20&#45;&gt;19</title>
<path fill="none" stroke="grey" stroke-width="2" d="M565.29,-503.7C563.64,-495.98 561.65,-486.71 559.81,-478.11"/>
<polygon fill="grey" stroke="grey" stroke-width="2" points="563.18,-477.15 557.67,-468.1 556.34,-478.62 563.18,-477.15"/>
</g>
<!-- 21 -->
<g id="node22" class="node">
<title>21</title>
<path fill="none" stroke="#d8b456" stroke-width="2" stroke-dasharray="5,2" d="M644.5,-324C644.5,-324 605.5,-324 605.5,-324 599.5,-324 593.5,-318 593.5,-312 593.5,-312 593.5,-300 593.5,-300 593.5,-294 599.5,-288 605.5,-288 605.5,-288 644.5,-288 644.5,-288 650.5,-288 656.5,-294 656.5,-300 656.5,-300 656.5,-312 656.5,-312 656.5,-318 650.5,-324 644.5,-324"/>
<text text-anchor="middle" x="625" y="-303.5" font-family="sans" font-size="10.00">bamming</text>
</g>
<!-- 21&#45;&gt;2 -->
<g id="edge7" class="edge">
<title>21&#45;&gt;2</title>
<path fill="none" stroke="grey" stroke-width="2" d="M629.26,-287.68C632.97,-268.2 635.59,-236.61 620,-216 593.37,-180.8 541.96,-168.82 505.89,-164.83"/>
<polygon fill="grey" stroke="grey" stroke-width="2" points="505.98,-161.33 495.7,-163.87 505.32,-168.3 505.98,-161.33"/>
</g>
<!-- 33 -->
<g id="node34" class="node">
<title>33</title>
<path fill="none" stroke="#ced856" stroke-width="2" stroke-dasharray="5,2" d="M599.5,-252C599.5,-252 564.5,-252 564.5,-252 558.5,-252 552.5,-246 552.5,-240 552.5,-240 552.5,-228 552.5,-228 552.5,-222 558.5,-216 564.5,-216 564.5,-216 599.5,-216 599.5,-216 605.5,-216 611.5,-222 611.5,-228 611.5,-228 611.5,-240 611.5,-240 611.5,-246 605.5,-252 599.5,-252"/>
<text text-anchor="middle" x="582" y="-231.5" font-family="sans" font-size="10.00">mapping</text>
</g>
<!-- 21&#45;&gt;33 -->
<g id="edge45" class="edge">
<title>21&#45;&gt;33</title>
<path fill="none" stroke="grey" stroke-width="2" d="M614.37,-287.7C609.37,-279.56 603.31,-269.69 597.79,-260.7"/>
<polygon fill="grey" stroke="grey" stroke-width="2" points="600.72,-258.79 592.51,-252.1 594.76,-262.46 600.72,-258.79"/>
</g>
<!-- 22&#45;&gt;21 -->
<g id="edge33" class="edge">
<title>22&#45;&gt;21</title>
<path fill="none" stroke="grey" stroke-width="2" d="M625,-359.7C625,-351.98 625,-342.71 625,-334.11"/>
<polygon fill="grey" stroke="grey" stroke-width="2" points="628.5,-334.1 625,-324.1 621.5,-334.1 628.5,-334.1"/>
</g>
<!-- 23 -->
<g id="node24" class="node">
<title>23</title>
<path fill="none" stroke="#70d856" stroke-width="2" stroke-dasharray="5,2" d="M692,-468C692,-468 654,-468 654,-468 648,-468 642,-462 642,-456 642,-456 642,-444 642,-444 642,-438 648,-432 654,-432 654,-432 692,-432 692,-432 698,-432 704,-438 704,-444 704,-444 704,-456 704,-456 704,-462 698,-468 692,-468"/>
<text text-anchor="middle" x="673" y="-447.5" font-family="sans" font-size="10.00">trimming</text>
</g>
<!-- 23&#45;&gt;22 -->
<g id="edge34" class="edge">
<title>23&#45;&gt;22</title>
<path fill="none" stroke="grey" stroke-width="2" d="M661.13,-431.7C655.5,-423.47 648.65,-413.48 642.43,-404.42"/>
<polygon fill="grey" stroke="grey" stroke-width="2" points="645.27,-402.37 636.73,-396.1 639.5,-406.33 645.27,-402.37"/>
</g>
<!-- 24 -->
<g id="node25" class="node">
<title>24</title>
<path fill="none" stroke="#5682d8" stroke-width="2" stroke-dasharray="5,2" d="M764,-540C764,-540 662,-540 662,-540 656,-540 650,-534 650,-528 650,-528 650,-516 650,-516 650,-510 656,-504 662,-504 662,-504 764,-504 764,-504 770,-504 776,-510 776,-516 776,-516 776,-528 776,-528 776,-534 770,-540 764,-540"/>
<text text-anchor="middle" x="713" y="-525" font-family="sans" font-size="10.00">downloading</text>
<text text-anchor="middle" x="713" y="-514" font-family="sans" font-size="10.00">sample: SRR10379725</text>
</g>
<!-- 24&#45;&gt;23 -->
<g id="edge36" class="edge">
<title>24&#45;&gt;23</title>
<path fill="none" stroke="grey" stroke-width="2" d="M703.11,-503.7C698.51,-495.64 692.94,-485.89 687.85,-476.98"/>
<polygon fill="grey" stroke="grey" stroke-width="2" points="690.77,-475.05 682.77,-468.1 684.7,-478.52 690.77,-475.05"/>
</g>
<!-- 25 -->
<g id="node26" class="node">
<title>25</title>
<path fill="none" stroke="#d8b456" stroke-width="2" stroke-dasharray="5,2" d="M731.5,-324C731.5,-324 692.5,-324 692.5,-324 686.5,-324 680.5,-318 680.5,-312 680.5,-312 680.5,-300 680.5,-300 680.5,-294 686.5,-288 692.5,-288 692.5,-288 731.5,-288 731.5,-288 737.5,-288 743.5,-294 743.5,-300 743.5,-300 743.5,-312 743.5,-312 743.5,-318 737.5,-324 731.5,-324"/>
<text text-anchor="middle" x="712" y="-303.5" font-family="sans" font-size="10.00">bamming</text>
</g>
<!-- 25&#45;&gt;2 -->
<g id="edge8" class="edge">
<title>25&#45;&gt;2</title>
<path fill="none" stroke="grey" stroke-width="2" d="M725.14,-287.71C738.21,-268.26 754.04,-236.69 737,-216 708.22,-181.05 574.37,-168.82 506.17,-164.81"/>
<polygon fill="grey" stroke="grey" stroke-width="2" points="505.99,-161.3 495.81,-164.24 505.6,-168.28 505.99,-161.3"/>
</g>
<!-- 34 -->
<g id="node35" class="node">
<title>34</title>
<path fill="none" stroke="#ced856" stroke-width="2" stroke-dasharray="5,2" d="M715.5,-252C715.5,-252 680.5,-252 680.5,-252 674.5,-252 668.5,-246 668.5,-240 668.5,-240 668.5,-228 668.5,-228 668.5,-222 674.5,-216 680.5,-216 680.5,-216 715.5,-216 715.5,-216 721.5,-216 727.5,-222 727.5,-228 727.5,-228 727.5,-240 727.5,-240 727.5,-246 721.5,-252 715.5,-252"/>
<text text-anchor="middle" x="698" y="-231.5" font-family="sans" font-size="10.00">mapping</text>
</g>
<!-- 25&#45;&gt;34 -->
<g id="edge46" class="edge">
<title>25&#45;&gt;34</title>
<path fill="none" stroke="grey" stroke-width="2" d="M708.54,-287.7C707,-279.98 705.14,-270.71 703.42,-262.11"/>
<polygon fill="grey" stroke="grey" stroke-width="2" points="706.81,-261.22 701.42,-252.1 699.95,-262.6 706.81,-261.22"/>
</g>
<!-- 26&#45;&gt;25 -->
<g id="edge37" class="edge">
<title>26&#45;&gt;25</title>
<path fill="none" stroke="grey" stroke-width="2" d="M712,-359.7C712,-351.98 712,-342.71 712,-334.11"/>
<polygon fill="grey" stroke="grey" stroke-width="2" points="715.5,-334.1 712,-324.1 708.5,-334.1 715.5,-334.1"/>
</g>
<!-- 27 -->
<g id="node28" class="node">
<title>27</title>
<path fill="none" stroke="#70d856" stroke-width="2" stroke-dasharray="5,2" d="M824,-468C824,-468 786,-468 786,-468 780,-468 774,-462 774,-456 774,-456 774,-444 774,-444 774,-438 780,-432 786,-432 786,-432 824,-432 824,-432 830,-432 836,-438 836,-444 836,-444 836,-456 836,-456 836,-462 830,-468 824,-468"/>
<text text-anchor="middle" x="805" y="-447.5" font-family="sans" font-size="10.00">trimming</text>
</g>
<!-- 27&#45;&gt;26 -->
<g id="edge38" class="edge">
<title>27&#45;&gt;26</title>
<path fill="none" stroke="grey" stroke-width="2" d="M782.01,-431.7C770.19,-422.8 755.61,-411.82 742.82,-402.2"/>
<polygon fill="grey" stroke="grey" stroke-width="2" points="744.82,-399.32 734.72,-396.1 740.61,-404.91 744.82,-399.32"/>
</g>
<!-- 28 -->
<g id="node29" class="node">
<title>28</title>
<path fill="none" stroke="#5682d8" stroke-width="2" stroke-dasharray="5,2" d="M908,-540C908,-540 806,-540 806,-540 800,-540 794,-534 794,-528 794,-528 794,-516 794,-516 794,-510 800,-504 806,-504 806,-504 908,-504 908,-504 914,-504 920,-510 920,-516 920,-516 920,-528 920,-528 920,-534 914,-540 908,-540"/>
<text text-anchor="middle" x="857" y="-525" font-family="sans" font-size="10.00">downloading</text>
<text text-anchor="middle" x="857" y="-514" font-family="sans" font-size="10.00">sample: SRR10379726</text>
</g>
<!-- 28&#45;&gt;27 -->
<g id="edge40" class="edge">
<title>28&#45;&gt;27</title>
<path fill="none" stroke="grey" stroke-width="2" d="M844.15,-503.7C837.97,-495.39 830.46,-485.28 823.68,-476.14"/>
<polygon fill="grey" stroke="grey" stroke-width="2" points="826.48,-474.04 817.71,-468.1 820.86,-478.22 826.48,-474.04"/>
</g>
<!-- 29&#45;&gt;2 -->
<g id="edge9" class="edge">
<title>29&#45;&gt;2</title>
<path fill="none" stroke="grey" stroke-width="2" d="M147.56,-220.67C152.33,-218.95 157.27,-217.31 162,-216 255.02,-190.19 367.69,-174.46 426.28,-167.4"/>
<polygon fill="grey" stroke="grey" stroke-width="2" points="426.71,-170.88 436.23,-166.22 425.89,-163.92 426.71,-170.88"/>
</g>
<!-- 30&#45;&gt;2 -->
<g id="edge10" class="edge">
<title>30&#45;&gt;2</title>
<path fill="none" stroke="grey" stroke-width="2" d="M263.68,-221.1C268.45,-219.31 273.34,-217.55 278,-216 328.8,-199.07 388.45,-182.86 426.71,-172.93"/>
<polygon fill="grey" stroke="grey" stroke-width="2" points="427.62,-176.3 436.43,-170.42 425.88,-169.53 427.62,-176.3"/>
</g>
<!-- 31&#45;&gt;2 -->
<g id="edge11" class="edge">
<title>31&#45;&gt;2</title>
<path fill="none" stroke="grey" stroke-width="2" d="M378.38,-215.88C393.54,-206.72 412.41,-195.34 428.74,-185.48"/>
<polygon fill="grey" stroke="grey" stroke-width="2" points="430.76,-188.35 437.51,-180.19 427.14,-182.36 430.76,-188.35"/>
</g>
<!-- 32&#45;&gt;2 -->
<g id="edge12" class="edge">
<title>32&#45;&gt;2</title>
<path fill="none" stroke="grey" stroke-width="2" d="M466,-215.7C466,-207.98 466,-198.71 466,-190.11"/>
<polygon fill="grey" stroke="grey" stroke-width="2" points="469.5,-190.1 466,-180.1 462.5,-190.1 469.5,-190.1"/>
</g>
<!-- 33&#45;&gt;2 -->
<g id="edge13" class="edge">
<title>33&#45;&gt;2</title>
<path fill="none" stroke="grey" stroke-width="2" d="M553.62,-215.88C538.46,-206.72 519.59,-195.34 503.26,-185.48"/>
<polygon fill="grey" stroke="grey" stroke-width="2" points="504.86,-182.36 494.49,-180.19 501.24,-188.35 504.86,-182.36"/>
</g>
<!-- 34&#45;&gt;2 -->
<g id="edge14" class="edge">
<title>34&#45;&gt;2</title>
<path fill="none" stroke="grey" stroke-width="2" d="M668.32,-221.1C663.55,-219.31 658.66,-217.55 654,-216 603.2,-199.07 543.55,-182.86 505.29,-172.93"/>
<polygon fill="grey" stroke="grey" stroke-width="2" points="506.12,-169.53 495.57,-170.42 504.38,-176.3 506.12,-169.53"/>
</g>
<!-- 35 -->
<g id="node36" class="node">
<title>35</title>
<path fill="none" stroke="#56d86b" stroke-width="2" stroke-dasharray="5,2" d="M864,-252C864,-252 796,-252 796,-252 790,-252 784,-246 784,-240 784,-240 784,-228 784,-228 784,-222 790,-216 796,-216 796,-216 864,-216 864,-216 870,-216 876,-222 876,-228 876,-228 876,-240 876,-240 876,-246 870,-252 864,-252"/>
<text text-anchor="middle" x="830" y="-231.5" font-family="sans" font-size="10.00">annotation_gen</text>
</g>
<!-- 35&#45;&gt;2 -->
<g id="edge15" class="edge">
<title>35&#45;&gt;2</title>
<path fill="none" stroke="grey" stroke-width="2" d="M783.94,-219.43C779.25,-218.2 774.54,-217.04 770,-216 676.08,-194.57 564.12,-177.1 505.8,-168.59"/>
<polygon fill="grey" stroke="grey" stroke-width="2" points="505.95,-165.08 495.55,-167.11 504.94,-172.01 505.95,-165.08"/>
</g>
</g>
</svg>
