<?xml version="1.0" encoding="UTF-8" standalone="no"?>
<!DOCTYPE svg PUBLIC "-//W3C//DTD SVG 1.1//EN"
 "http://www.w3.org/Graphics/SVG/1.1/DTD/svg11.dtd">
<!-- Generated by graphviz version 2.43.0 (0)
 -->
<!-- Title: snakemake_dag Pages: 1 -->
<svg width="932pt" height="404pt"
 viewBox="0.00 0.00 932.00 404.00" xmlns="http://www.w3.org/2000/svg" xmlns:xlink="http://www.w3.org/1999/xlink">
<g id="graph0" class="graph" transform="scale(1 1) rotate(0) translate(4 400)">
<title>snakemake_dag</title>
<polygon fill="white" stroke="transparent" points="-4,4 -4,-400 928,-400 928,4 -4,4"/>
<!-- 0 -->
<g id="node1" class="node">
<title>0</title>
<path fill="none" stroke="#5692d8" stroke-width="2" stroke-dasharray="5,2" d="M441.5,-36C441.5,-36 406.5,-36 406.5,-36 400.5,-36 394.5,-30 394.5,-24 394.5,-24 394.5,-12 394.5,-12 394.5,-6 400.5,0 406.5,0 406.5,0 441.5,0 441.5,0 447.5,0 453.5,-6 453.5,-12 453.5,-12 453.5,-24 453.5,-24 453.5,-30 447.5,-36 441.5,-36"/>
<text text-anchor="middle" x="424" y="-15.5" font-family="sans" font-size="10.00">counting</text>
</g>
<!-- 1 -->
<g id="node2" class="node">
<title>1</title>
<path fill="none" stroke="#56c9d8" stroke-width="2" stroke-dasharray="5,2" d="M110.5,-180C110.5,-180 71.5,-180 71.5,-180 65.5,-180 59.5,-174 59.5,-168 59.5,-168 59.5,-156 59.5,-156 59.5,-150 65.5,-144 71.5,-144 71.5,-144 110.5,-144 110.5,-144 116.5,-144 122.5,-150 122.5,-156 122.5,-156 122.5,-168 122.5,-168 122.5,-174 116.5,-180 110.5,-180"/>
<text text-anchor="middle" x="91" y="-159.5" font-family="sans" font-size="10.00">bamming</text>
</g>
<!-- 1&#45;&gt;0 -->
<g id="edge1" class="edge">
<title>1&#45;&gt;0</title>
<path fill="none" stroke="grey" stroke-width="2" d="M98.05,-143.9C107.42,-123.39 126.03,-89.59 153,-72 190.64,-47.46 318.48,-30.44 384.23,-23.08"/>
<polygon fill="grey" stroke="grey" stroke-width="2" points="384.67,-26.56 394.23,-21.99 383.9,-19.6 384.67,-26.56"/>
</g>
<!-- 21 -->
<g id="node22" class="node">
<title>21</title>
<path fill="none" stroke="#d85656" stroke-width="2" stroke-dasharray="5,2" d="M93.5,-108C93.5,-108 58.5,-108 58.5,-108 52.5,-108 46.5,-102 46.5,-96 46.5,-96 46.5,-84 46.5,-84 46.5,-78 52.5,-72 58.5,-72 58.5,-72 93.5,-72 93.5,-72 99.5,-72 105.5,-78 105.5,-84 105.5,-84 105.5,-96 105.5,-96 105.5,-102 99.5,-108 93.5,-108"/>
<text text-anchor="middle" x="76" y="-87.5" font-family="sans" font-size="10.00">mapping</text>
</g>
<!-- 1&#45;&gt;21 -->
<g id="edge33" class="edge">
<title>1&#45;&gt;21</title>
<path fill="none" stroke="grey" stroke-width="2" d="M87.29,-143.7C85.64,-135.98 83.65,-126.71 81.81,-118.11"/>
<polygon fill="grey" stroke="grey" stroke-width="2" points="85.18,-117.15 79.67,-108.1 78.34,-118.62 85.18,-117.15"/>
</g>
<!-- 2 -->
<g id="node3" class="node">
<title>2</title>
<path fill="none" stroke="#d88d56" stroke-width="2" stroke-dasharray="5,2" d="M110,-252C110,-252 72,-252 72,-252 66,-252 60,-246 60,-240 60,-240 60,-228 60,-228 60,-222 66,-216 72,-216 72,-216 110,-216 110,-216 116,-216 122,-222 122,-228 122,-228 122,-240 122,-240 122,-246 116,-252 110,-252"/>
<text text-anchor="middle" x="91" y="-231.5" font-family="sans" font-size="10.00">samming</text>
</g>
<!-- 2&#45;&gt;1 -->
<g id="edge14" class="edge">
<title>2&#45;&gt;1</title>
<path fill="none" stroke="grey" stroke-width="2" d="M91,-215.7C91,-207.98 91,-198.71 91,-190.11"/>
<polygon fill="grey" stroke="grey" stroke-width="2" points="94.5,-190.1 91,-180.1 87.5,-190.1 94.5,-190.1"/>
</g>
<!-- 3 -->
<g id="node4" class="node">
<title>3</title>
<path fill="none" stroke="#d8cb56" stroke-width="2" stroke-dasharray="5,2" d="M114,-324C114,-324 12,-324 12,-324 6,-324 0,-318 0,-312 0,-312 0,-300 0,-300 0,-294 6,-288 12,-288 12,-288 114,-288 114,-288 120,-288 126,-294 126,-300 126,-300 126,-312 126,-312 126,-318 120,-324 114,-324"/>
<text text-anchor="middle" x="63" y="-309" font-family="sans" font-size="10.00">trimming</text>
<text text-anchor="middle" x="63" y="-298" font-family="sans" font-size="10.00">sample: SRR10379721</text>
</g>
<!-- 3&#45;&gt;2 -->
<g id="edge15" class="edge">
<title>3&#45;&gt;2</title>
<path fill="none" stroke="grey" stroke-width="2" d="M69.92,-287.7C73.07,-279.81 76.88,-270.3 80.38,-261.55"/>
<polygon fill="grey" stroke="grey" stroke-width="2" points="83.69,-262.69 84.16,-252.1 77.19,-260.09 83.69,-262.69"/>
</g>
<!-- 4 -->
<g id="node5" class="node">
<title>4</title>
<path fill="none" stroke="#56d873" stroke-width="2" stroke-dasharray="5,2" d="M479.5,-324C479.5,-324 444.5,-324 444.5,-324 438.5,-324 432.5,-318 432.5,-312 432.5,-312 432.5,-300 432.5,-300 432.5,-294 438.5,-288 444.5,-288 444.5,-288 479.5,-288 479.5,-288 485.5,-288 491.5,-294 491.5,-300 491.5,-300 491.5,-312 491.5,-312 491.5,-318 485.5,-324 479.5,-324"/>
<text text-anchor="middle" x="462" y="-303.5" font-family="sans" font-size="10.00">indexing</text>
</g>
<!-- 4&#45;&gt;2 -->
<g id="edge16" class="edge">
<title>4&#45;&gt;2</title>
<path fill="none" stroke="grey" stroke-width="2" d="M432.48,-291.21C429.32,-290.01 426.12,-288.91 423,-288 324.95,-259.36 296.86,-268.16 196,-252 174.98,-248.63 151.6,-244.85 132.25,-241.71"/>
<polygon fill="grey" stroke="grey" stroke-width="2" points="132.67,-238.23 122.24,-240.08 131.55,-245.14 132.67,-238.23"/>
</g>
<!-- 7 -->
<g id="node8" class="node">
<title>7</title>
<path fill="none" stroke="#d88d56" stroke-width="2" stroke-dasharray="5,2" d="M255,-252C255,-252 217,-252 217,-252 211,-252 205,-246 205,-240 205,-240 205,-228 205,-228 205,-222 211,-216 217,-216 217,-216 255,-216 255,-216 261,-216 267,-222 267,-228 267,-228 267,-240 267,-240 267,-246 261,-252 255,-252"/>
<text text-anchor="middle" x="236" y="-231.5" font-family="sans" font-size="10.00">samming</text>
</g>
<!-- 4&#45;&gt;7 -->
<g id="edge20" class="edge">
<title>4&#45;&gt;7</title>
<path fill="none" stroke="grey" stroke-width="2" d="M432.36,-291.59C429.22,-290.32 426.06,-289.09 423,-288 373.57,-270.31 315.14,-254.55 276.92,-244.9"/>
<polygon fill="grey" stroke="grey" stroke-width="2" points="277.73,-241.49 267.18,-242.46 276.03,-248.29 277.73,-241.49"/>
</g>
<!-- 10 -->
<g id="node11" class="node">
<title>10</title>
<path fill="none" stroke="#d88d56" stroke-width="2" stroke-dasharray="5,2" d="M371,-252C371,-252 333,-252 333,-252 327,-252 321,-246 321,-240 321,-240 321,-228 321,-228 321,-222 327,-216 333,-216 333,-216 371,-216 371,-216 377,-216 383,-222 383,-228 383,-228 383,-240 383,-240 383,-246 377,-252 371,-252"/>
<text text-anchor="middle" x="352" y="-231.5" font-family="sans" font-size="10.00">samming</text>
</g>
<!-- 4&#45;&gt;10 -->
<g id="edge23" class="edge">
<title>4&#45;&gt;10</title>
<path fill="none" stroke="grey" stroke-width="2" d="M435.09,-287.88C420.84,-278.81 403.15,-267.55 387.76,-257.76"/>
<polygon fill="grey" stroke="grey" stroke-width="2" points="389.33,-254.61 379.01,-252.19 385.57,-260.51 389.33,-254.61"/>
</g>
<!-- 13 -->
<g id="node14" class="node">
<title>13</title>
<path fill="none" stroke="#d88d56" stroke-width="2" stroke-dasharray="5,2" d="M484,-252C484,-252 446,-252 446,-252 440,-252 434,-246 434,-240 434,-240 434,-228 434,-228 434,-222 440,-216 446,-216 446,-216 484,-216 484,-216 490,-216 496,-222 496,-228 496,-228 496,-240 496,-240 496,-246 490,-252 484,-252"/>
<text text-anchor="middle" x="465" y="-231.5" font-family="sans" font-size="10.00">samming</text>
</g>
<!-- 4&#45;&gt;13 -->
<g id="edge26" class="edge">
<title>4&#45;&gt;13</title>
<path fill="none" stroke="grey" stroke-width="2" d="M462.74,-287.7C463.07,-279.98 463.47,-270.71 463.84,-262.11"/>
<polygon fill="grey" stroke="grey" stroke-width="2" points="467.34,-262.25 464.27,-252.1 460.34,-261.95 467.34,-262.25"/>
</g>
<!-- 16 -->
<g id="node17" class="node">
<title>16</title>
<path fill="none" stroke="#d88d56" stroke-width="2" stroke-dasharray="5,2" d="M601,-252C601,-252 563,-252 563,-252 557,-252 551,-246 551,-240 551,-240 551,-228 551,-228 551,-222 557,-216 563,-216 563,-216 601,-216 601,-216 607,-216 613,-222 613,-228 613,-228 613,-240 613,-240 613,-246 607,-252 601,-252"/>
<text text-anchor="middle" x="582" y="-231.5" font-family="sans" font-size="10.00">samming</text>
</g>
<!-- 4&#45;&gt;16 -->
<g id="edge29" class="edge">
<title>4&#45;&gt;16</title>
<path fill="none" stroke="grey" stroke-width="2" d="M491.36,-287.88C507.05,-278.72 526.56,-267.34 543.45,-257.48"/>
<polygon fill="grey" stroke="grey" stroke-width="2" points="545.66,-260.25 552.53,-252.19 542.13,-254.21 545.66,-260.25"/>
</g>
<!-- 19 -->
<g id="node20" class="node">
<title>19</title>
<path fill="none" stroke="#d88d56" stroke-width="2" stroke-dasharray="5,2" d="M691,-252C691,-252 653,-252 653,-252 647,-252 641,-246 641,-240 641,-240 641,-228 641,-228 641,-222 647,-216 653,-216 653,-216 691,-216 691,-216 697,-216 703,-222 703,-228 703,-228 703,-240 703,-240 703,-246 697,-252 691,-252"/>
<text text-anchor="middle" x="672" y="-231.5" font-family="sans" font-size="10.00">samming</text>
</g>
<!-- 4&#45;&gt;19 -->
<g id="edge32" class="edge">
<title>4&#45;&gt;19</title>
<path fill="none" stroke="grey" stroke-width="2" d="M491.66,-291.63C494.79,-290.35 497.95,-289.11 501,-288 553.7,-268.75 568.54,-269.03 622,-252 624.96,-251.06 628.02,-250.06 631.09,-249.05"/>
<polygon fill="grey" stroke="grey" stroke-width="2" points="632.48,-252.28 640.86,-245.8 630.26,-245.64 632.48,-252.28"/>
</g>
<!-- 5 -->
<g id="node6" class="node">
<title>5</title>
<path fill="none" stroke="#56d8a9" stroke-width="2" stroke-dasharray="5,2" d="M478,-396C478,-396 446,-396 446,-396 440,-396 434,-390 434,-384 434,-384 434,-372 434,-372 434,-366 440,-360 446,-360 446,-360 478,-360 478,-360 484,-360 490,-366 490,-372 490,-372 490,-384 490,-384 490,-390 484,-396 478,-396"/>
<text text-anchor="middle" x="462" y="-375.5" font-family="sans" font-size="10.00">genome</text>
</g>
<!-- 5&#45;&gt;4 -->
<g id="edge17" class="edge">
<title>5&#45;&gt;4</title>
<path fill="none" stroke="grey" stroke-width="2" d="M462,-359.7C462,-351.98 462,-342.71 462,-334.11"/>
<polygon fill="grey" stroke="grey" stroke-width="2" points="465.5,-334.1 462,-324.1 458.5,-334.1 465.5,-334.1"/>
</g>
<!-- 6 -->
<g id="node7" class="node">
<title>6</title>
<path fill="none" stroke="#56c9d8" stroke-width="2" stroke-dasharray="5,2" d="M255.5,-180C255.5,-180 216.5,-180 216.5,-180 210.5,-180 204.5,-174 204.5,-168 204.5,-168 204.5,-156 204.5,-156 204.5,-150 210.5,-144 216.5,-144 216.5,-144 255.5,-144 255.5,-144 261.5,-144 267.5,-150 267.5,-156 267.5,-156 267.5,-168 267.5,-168 267.5,-174 261.5,-180 255.5,-180"/>
<text text-anchor="middle" x="236" y="-159.5" font-family="sans" font-size="10.00">bamming</text>
</g>
<!-- 6&#45;&gt;0 -->
<g id="edge2" class="edge">
<title>6&#45;&gt;0</title>
<path fill="none" stroke="grey" stroke-width="2" d="M237.93,-143.88C241.06,-124 249.06,-91.44 269,-72 300.19,-41.6 349.54,-28.6 384.15,-23.07"/>
<polygon fill="grey" stroke="grey" stroke-width="2" points="385,-26.48 394.39,-21.58 383.99,-19.56 385,-26.48"/>
</g>
<!-- 22 -->
<g id="node23" class="node">
<title>22</title>
<path fill="none" stroke="#d85656" stroke-width="2" stroke-dasharray="5,2" d="M209.5,-108C209.5,-108 174.5,-108 174.5,-108 168.5,-108 162.5,-102 162.5,-96 162.5,-96 162.5,-84 162.5,-84 162.5,-78 168.5,-72 174.5,-72 174.5,-72 209.5,-72 209.5,-72 215.5,-72 221.5,-78 221.5,-84 221.5,-84 221.5,-96 221.5,-96 221.5,-102 215.5,-108 209.5,-108"/>
<text text-anchor="middle" x="192" y="-87.5" font-family="sans" font-size="10.00">mapping</text>
</g>
<!-- 6&#45;&gt;22 -->
<g id="edge34" class="edge">
<title>6&#45;&gt;22</title>
<path fill="none" stroke="grey" stroke-width="2" d="M225.12,-143.7C220.01,-135.56 213.8,-125.69 208.16,-116.7"/>
<polygon fill="grey" stroke="grey" stroke-width="2" points="211.04,-114.71 202.75,-108.1 205.11,-118.43 211.04,-114.71"/>
</g>
<!-- 7&#45;&gt;6 -->
<g id="edge18" class="edge">
<title>7&#45;&gt;6</title>
<path fill="none" stroke="grey" stroke-width="2" d="M236,-215.7C236,-207.98 236,-198.71 236,-190.11"/>
<polygon fill="grey" stroke="grey" stroke-width="2" points="239.5,-190.1 236,-180.1 232.5,-190.1 239.5,-190.1"/>
</g>
<!-- 8 -->
<g id="node9" class="node">
<title>8</title>
<path fill="none" stroke="#d8cb56" stroke-width="2" stroke-dasharray="5,2" d="M258,-324C258,-324 156,-324 156,-324 150,-324 144,-318 144,-312 144,-312 144,-300 144,-300 144,-294 150,-288 156,-288 156,-288 258,-288 258,-288 264,-288 270,-294 270,-300 270,-300 270,-312 270,-312 270,-318 264,-324 258,-324"/>
<text text-anchor="middle" x="207" y="-309" font-family="sans" font-size="10.00">trimming</text>
<text text-anchor="middle" x="207" y="-298" font-family="sans" font-size="10.00">sample: SRR10379722</text>
</g>
<!-- 8&#45;&gt;7 -->
<g id="edge19" class="edge">
<title>8&#45;&gt;7</title>
<path fill="none" stroke="grey" stroke-width="2" d="M214.17,-287.7C217.43,-279.81 221.37,-270.3 225,-261.55"/>
<polygon fill="grey" stroke="grey" stroke-width="2" points="228.32,-262.68 228.91,-252.1 221.85,-260 228.32,-262.68"/>
</g>
<!-- 9 -->
<g id="node10" class="node">
<title>9</title>
<path fill="none" stroke="#56c9d8" stroke-width="2" stroke-dasharray="5,2" d="M371.5,-180C371.5,-180 332.5,-180 332.5,-180 326.5,-180 320.5,-174 320.5,-168 320.5,-168 320.5,-156 320.5,-156 320.5,-150 326.5,-144 332.5,-144 332.5,-144 371.5,-144 371.5,-144 377.5,-144 383.5,-150 383.5,-156 383.5,-156 383.5,-168 383.5,-168 383.5,-174 377.5,-180 371.5,-180"/>
<text text-anchor="middle" x="352" y="-159.5" font-family="sans" font-size="10.00">bamming</text>
</g>
<!-- 9&#45;&gt;0 -->
<g id="edge3" class="edge">
<title>9&#45;&gt;0</title>
<path fill="none" stroke="grey" stroke-width="2" d="M356.75,-143.99C362.23,-125.62 372.17,-95.79 385,-72 390.13,-62.5 396.78,-52.79 403.14,-44.32"/>
<polygon fill="grey" stroke="grey" stroke-width="2" points="405.98,-46.37 409.33,-36.32 400.44,-42.09 405.98,-46.37"/>
</g>
<!-- 23 -->
<g id="node24" class="node">
<title>23</title>
<path fill="none" stroke="#d85656" stroke-width="2" stroke-dasharray="5,2" d="M325.5,-108C325.5,-108 290.5,-108 290.5,-108 284.5,-108 278.5,-102 278.5,-96 278.5,-96 278.5,-84 278.5,-84 278.5,-78 284.5,-72 290.5,-72 290.5,-72 325.5,-72 325.5,-72 331.5,-72 337.5,-78 337.5,-84 337.5,-84 337.5,-96 337.5,-96 337.5,-102 331.5,-108 325.5,-108"/>
<text text-anchor="middle" x="308" y="-87.5" font-family="sans" font-size="10.00">mapping</text>
</g>
<!-- 9&#45;&gt;23 -->
<g id="edge35" class="edge">
<title>9&#45;&gt;23</title>
<path fill="none" stroke="grey" stroke-width="2" d="M341.12,-143.7C336.01,-135.56 329.8,-125.69 324.16,-116.7"/>
<polygon fill="grey" stroke="grey" stroke-width="2" points="327.04,-114.71 318.75,-108.1 321.11,-118.43 327.04,-114.71"/>
</g>
<!-- 10&#45;&gt;9 -->
<g id="edge21" class="edge">
<title>10&#45;&gt;9</title>
<path fill="none" stroke="grey" stroke-width="2" d="M352,-215.7C352,-207.98 352,-198.71 352,-190.11"/>
<polygon fill="grey" stroke="grey" stroke-width="2" points="355.5,-190.1 352,-180.1 348.5,-190.1 355.5,-190.1"/>
</g>
<!-- 11 -->
<g id="node12" class="node">
<title>11</title>
<path fill="none" stroke="#d8cb56" stroke-width="2" stroke-dasharray="5,2" d="M402,-324C402,-324 300,-324 300,-324 294,-324 288,-318 288,-312 288,-312 288,-300 288,-300 288,-294 294,-288 300,-288 300,-288 402,-288 402,-288 408,-288 414,-294 414,-300 414,-300 414,-312 414,-312 414,-318 408,-324 402,-324"/>
<text text-anchor="middle" x="351" y="-309" font-family="sans" font-size="10.00">trimming</text>
<text text-anchor="middle" x="351" y="-298" font-family="sans" font-size="10.00">sample: SRR10379723</text>
</g>
<!-- 11&#45;&gt;10 -->
<g id="edge22" class="edge">
<title>11&#45;&gt;10</title>
<path fill="none" stroke="grey" stroke-width="2" d="M351.25,-287.7C351.36,-279.98 351.49,-270.71 351.61,-262.11"/>
<polygon fill="grey" stroke="grey" stroke-width="2" points="355.11,-262.15 351.76,-252.1 348.11,-262.05 355.11,-262.15"/>
</g>
<!-- 12 -->
<g id="node13" class="node">
<title>12</title>
<path fill="none" stroke="#56c9d8" stroke-width="2" stroke-dasharray="5,2" d="M484.5,-180C484.5,-180 445.5,-180 445.5,-180 439.5,-180 433.5,-174 433.5,-168 433.5,-168 433.5,-156 433.5,-156 433.5,-150 439.5,-144 445.5,-144 445.5,-144 484.5,-144 484.5,-144 490.5,-144 496.5,-150 496.5,-156 496.5,-156 496.5,-168 496.5,-168 496.5,-174 490.5,-180 484.5,-180"/>
<text text-anchor="middle" x="465" y="-159.5" font-family="sans" font-size="10.00">bamming</text>
</g>
<!-- 12&#45;&gt;0 -->
<g id="edge4" class="edge">
<title>12&#45;&gt;0</title>
<path fill="none" stroke="grey" stroke-width="2" d="M467.31,-143.74C469.11,-125.42 470.11,-95.86 462,-72 458.64,-62.14 452.79,-52.51 446.67,-44.24"/>
<polygon fill="grey" stroke="grey" stroke-width="2" points="449.23,-41.82 440.28,-36.14 443.73,-46.16 449.23,-41.82"/>
</g>
<!-- 24 -->
<g id="node25" class="node">
<title>24</title>
<path fill="none" stroke="#d85656" stroke-width="2" stroke-dasharray="5,2" d="M441.5,-108C441.5,-108 406.5,-108 406.5,-108 400.5,-108 394.5,-102 394.5,-96 394.5,-96 394.5,-84 394.5,-84 394.5,-78 400.5,-72 406.5,-72 406.5,-72 441.5,-72 441.5,-72 447.5,-72 453.5,-78 453.5,-84 453.5,-84 453.5,-96 453.5,-96 453.5,-102 447.5,-108 441.5,-108"/>
<text text-anchor="middle" x="424" y="-87.5" font-family="sans" font-size="10.00">mapping</text>
</g>
<!-- 12&#45;&gt;24 -->
<g id="edge36" class="edge">
<title>12&#45;&gt;24</title>
<path fill="none" stroke="grey" stroke-width="2" d="M454.87,-143.7C450.15,-135.64 444.44,-125.89 439.22,-116.98"/>
<polygon fill="grey" stroke="grey" stroke-width="2" points="442.09,-114.96 434.02,-108.1 436.05,-118.5 442.09,-114.96"/>
</g>
<!-- 13&#45;&gt;12 -->
<g id="edge24" class="edge">
<title>13&#45;&gt;12</title>
<path fill="none" stroke="grey" stroke-width="2" d="M465,-215.7C465,-207.98 465,-198.71 465,-190.11"/>
<polygon fill="grey" stroke="grey" stroke-width="2" points="468.5,-190.1 465,-180.1 461.5,-190.1 468.5,-190.1"/>
</g>
<!-- 14 -->
<g id="node15" class="node">
<title>14</title>
<path fill="none" stroke="#d8cb56" stroke-width="2" stroke-dasharray="5,2" d="M624,-324C624,-324 522,-324 522,-324 516,-324 510,-318 510,-312 510,-312 510,-300 510,-300 510,-294 516,-288 522,-288 522,-288 624,-288 624,-288 630,-288 636,-294 636,-300 636,-300 636,-312 636,-312 636,-318 630,-324 624,-324"/>
<text text-anchor="middle" x="573" y="-309" font-family="sans" font-size="10.00">trimming</text>
<text text-anchor="middle" x="573" y="-298" font-family="sans" font-size="10.00">sample: SRR10379724</text>
</g>
<!-- 14&#45;&gt;13 -->
<g id="edge25" class="edge">
<title>14&#45;&gt;13</title>
<path fill="none" stroke="grey" stroke-width="2" d="M546.58,-287.88C532.59,-278.81 515.22,-267.55 500.11,-257.76"/>
<polygon fill="grey" stroke="grey" stroke-width="2" points="501.82,-254.69 491.52,-252.19 498.01,-260.57 501.82,-254.69"/>
</g>
<!-- 15 -->
<g id="node16" class="node">
<title>15</title>
<path fill="none" stroke="#56c9d8" stroke-width="2" stroke-dasharray="5,2" d="M601.5,-180C601.5,-180 562.5,-180 562.5,-180 556.5,-180 550.5,-174 550.5,-168 550.5,-168 550.5,-156 550.5,-156 550.5,-150 556.5,-144 562.5,-144 562.5,-144 601.5,-144 601.5,-144 607.5,-144 613.5,-150 613.5,-156 613.5,-156 613.5,-168 613.5,-168 613.5,-174 607.5,-180 601.5,-180"/>
<text text-anchor="middle" x="582" y="-159.5" font-family="sans" font-size="10.00">bamming</text>
</g>
<!-- 15&#45;&gt;0 -->
<g id="edge5" class="edge">
<title>15&#45;&gt;0</title>
<path fill="none" stroke="grey" stroke-width="2" d="M586.49,-143.71C590.46,-124.26 593.47,-92.69 578,-72 551.57,-36.66 500.12,-24.71 463.98,-20.77"/>
<polygon fill="grey" stroke="grey" stroke-width="2" points="464.05,-17.26 453.77,-19.82 463.4,-24.23 464.05,-17.26"/>
</g>
<!-- 25 -->
<g id="node26" class="node">
<title>25</title>
<path fill="none" stroke="#d85656" stroke-width="2" stroke-dasharray="5,2" d="M557.5,-108C557.5,-108 522.5,-108 522.5,-108 516.5,-108 510.5,-102 510.5,-96 510.5,-96 510.5,-84 510.5,-84 510.5,-78 516.5,-72 522.5,-72 522.5,-72 557.5,-72 557.5,-72 563.5,-72 569.5,-78 569.5,-84 569.5,-84 569.5,-96 569.5,-96 569.5,-102 563.5,-108 557.5,-108"/>
<text text-anchor="middle" x="540" y="-87.5" font-family="sans" font-size="10.00">mapping</text>
</g>
<!-- 15&#45;&gt;25 -->
<g id="edge37" class="edge">
<title>15&#45;&gt;25</title>
<path fill="none" stroke="grey" stroke-width="2" d="M571.62,-143.7C566.74,-135.56 560.81,-125.69 555.42,-116.7"/>
<polygon fill="grey" stroke="grey" stroke-width="2" points="558.41,-114.88 550.26,-108.1 552.41,-118.48 558.41,-114.88"/>
</g>
<!-- 16&#45;&gt;15 -->
<g id="edge27" class="edge">
<title>16&#45;&gt;15</title>
<path fill="none" stroke="grey" stroke-width="2" d="M582,-215.7C582,-207.98 582,-198.71 582,-190.11"/>
<polygon fill="grey" stroke="grey" stroke-width="2" points="585.5,-190.1 582,-180.1 578.5,-190.1 585.5,-190.1"/>
</g>
<!-- 17 -->
<g id="node18" class="node">
<title>17</title>
<path fill="none" stroke="#d8cb56" stroke-width="2" stroke-dasharray="5,2" d="M768,-324C768,-324 666,-324 666,-324 660,-324 654,-318 654,-312 654,-312 654,-300 654,-300 654,-294 660,-288 666,-288 666,-288 768,-288 768,-288 774,-288 780,-294 780,-300 780,-300 780,-312 780,-312 780,-318 774,-324 768,-324"/>
<text text-anchor="middle" x="717" y="-309" font-family="sans" font-size="10.00">trimming</text>
<text text-anchor="middle" x="717" y="-298" font-family="sans" font-size="10.00">sample: SRR10379725</text>
</g>
<!-- 17&#45;&gt;16 -->
<g id="edge28" class="edge">
<title>17&#45;&gt;16</title>
<path fill="none" stroke="grey" stroke-width="2" d="M683.98,-287.88C665.38,-278.23 642,-266.11 622.33,-255.91"/>
<polygon fill="grey" stroke="grey" stroke-width="2" points="623.78,-252.72 613.29,-251.23 620.56,-258.94 623.78,-252.72"/>
</g>
<!-- 18 -->
<g id="node19" class="node">
<title>18</title>
<path fill="none" stroke="#56c9d8" stroke-width="2" stroke-dasharray="5,2" d="M691.5,-180C691.5,-180 652.5,-180 652.5,-180 646.5,-180 640.5,-174 640.5,-168 640.5,-168 640.5,-156 640.5,-156 640.5,-150 646.5,-144 652.5,-144 652.5,-144 691.5,-144 691.5,-144 697.5,-144 703.5,-150 703.5,-156 703.5,-156 703.5,-168 703.5,-168 703.5,-174 697.5,-180 691.5,-180"/>
<text text-anchor="middle" x="672" y="-159.5" font-family="sans" font-size="10.00">bamming</text>
</g>
<!-- 18&#45;&gt;0 -->
<g id="edge6" class="edge">
<title>18&#45;&gt;0</title>
<path fill="none" stroke="grey" stroke-width="2" d="M684.25,-143.65C696.38,-124.15 710.89,-92.53 694,-72 665.33,-37.16 531.97,-24.88 464.02,-20.83"/>
<polygon fill="grey" stroke="grey" stroke-width="2" points="463.89,-17.32 453.7,-20.25 463.49,-24.31 463.89,-17.32"/>
</g>
<!-- 26 -->
<g id="node27" class="node">
<title>26</title>
<path fill="none" stroke="#d85656" stroke-width="2" stroke-dasharray="5,2" d="M673.5,-108C673.5,-108 638.5,-108 638.5,-108 632.5,-108 626.5,-102 626.5,-96 626.5,-96 626.5,-84 626.5,-84 626.5,-78 632.5,-72 638.5,-72 638.5,-72 673.5,-72 673.5,-72 679.5,-72 685.5,-78 685.5,-84 685.5,-84 685.5,-96 685.5,-96 685.5,-102 679.5,-108 673.5,-108"/>
<text text-anchor="middle" x="656" y="-87.5" font-family="sans" font-size="10.00">mapping</text>
</g>
<!-- 18&#45;&gt;26 -->
<g id="edge38" class="edge">
<title>18&#45;&gt;26</title>
<path fill="none" stroke="grey" stroke-width="2" d="M668.04,-143.7C666.28,-135.98 664.16,-126.71 662.2,-118.11"/>
<polygon fill="grey" stroke="grey" stroke-width="2" points="665.55,-117.07 659.91,-108.1 658.73,-118.63 665.55,-117.07"/>
</g>
<!-- 19&#45;&gt;18 -->
<g id="edge30" class="edge">
<title>19&#45;&gt;18</title>
<path fill="none" stroke="grey" stroke-width="2" d="M672,-215.7C672,-207.98 672,-198.71 672,-190.11"/>
<polygon fill="grey" stroke="grey" stroke-width="2" points="675.5,-190.1 672,-180.1 668.5,-190.1 675.5,-190.1"/>
</g>
<!-- 20 -->
<g id="node21" class="node">
<title>20</title>
<path fill="none" stroke="#d8cb56" stroke-width="2" stroke-dasharray="5,2" d="M912,-324C912,-324 810,-324 810,-324 804,-324 798,-318 798,-312 798,-312 798,-300 798,-300 798,-294 804,-288 810,-288 810,-288 912,-288 912,-288 918,-288 924,-294 924,-300 924,-300 924,-312 924,-312 924,-318 918,-324 912,-324"/>
<text text-anchor="middle" x="861" y="-309" font-family="sans" font-size="10.00">trimming</text>
<text text-anchor="middle" x="861" y="-298" font-family="sans" font-size="10.00">sample: SRR10379726</text>
</g>
<!-- 20&#45;&gt;19 -->
<g id="edge31" class="edge">
<title>20&#45;&gt;19</title>
<path fill="none" stroke="grey" stroke-width="2" d="M814.77,-287.88C783.64,-276.35 742.97,-261.28 713,-250.19"/>
<polygon fill="grey" stroke="grey" stroke-width="2" points="713.87,-246.78 703.28,-246.58 711.44,-253.34 713.87,-246.78"/>
</g>
<!-- 21&#45;&gt;0 -->
<g id="edge7" class="edge">
<title>21&#45;&gt;0</title>
<path fill="none" stroke="grey" stroke-width="2" d="M105.56,-76.67C110.33,-74.95 115.27,-73.31 120,-72 213.02,-46.19 325.69,-30.46 384.28,-23.4"/>
<polygon fill="grey" stroke="grey" stroke-width="2" points="384.71,-26.88 394.23,-22.22 383.89,-19.92 384.71,-26.88"/>
</g>
<!-- 22&#45;&gt;0 -->
<g id="edge8" class="edge">
<title>22&#45;&gt;0</title>
<path fill="none" stroke="grey" stroke-width="2" d="M221.68,-77.1C226.45,-75.31 231.34,-73.55 236,-72 286.8,-55.07 346.45,-38.86 384.71,-28.93"/>
<polygon fill="grey" stroke="grey" stroke-width="2" points="385.62,-32.3 394.43,-26.42 383.88,-25.53 385.62,-32.3"/>
</g>
<!-- 23&#45;&gt;0 -->
<g id="edge9" class="edge">
<title>23&#45;&gt;0</title>
<path fill="none" stroke="grey" stroke-width="2" d="M336.38,-71.88C351.54,-62.72 370.41,-51.34 386.74,-41.48"/>
<polygon fill="grey" stroke="grey" stroke-width="2" points="388.76,-44.35 395.51,-36.19 385.14,-38.36 388.76,-44.35"/>
</g>
<!-- 24&#45;&gt;0 -->
<g id="edge10" class="edge">
<title>24&#45;&gt;0</title>
<path fill="none" stroke="grey" stroke-width="2" d="M424,-71.7C424,-63.98 424,-54.71 424,-46.11"/>
<polygon fill="grey" stroke="grey" stroke-width="2" points="427.5,-46.1 424,-36.1 420.5,-46.1 427.5,-46.1"/>
</g>
<!-- 25&#45;&gt;0 -->
<g id="edge11" class="edge">
<title>25&#45;&gt;0</title>
<path fill="none" stroke="grey" stroke-width="2" d="M511.62,-71.88C496.46,-62.72 477.59,-51.34 461.26,-41.48"/>
<polygon fill="grey" stroke="grey" stroke-width="2" points="462.86,-38.36 452.49,-36.19 459.24,-44.35 462.86,-38.36"/>
</g>
<!-- 26&#45;&gt;0 -->
<g id="edge12" class="edge">
<title>26&#45;&gt;0</title>
<path fill="none" stroke="grey" stroke-width="2" d="M626.32,-77.1C621.55,-75.31 616.66,-73.55 612,-72 561.2,-55.07 501.55,-38.86 463.29,-28.93"/>
<polygon fill="grey" stroke="grey" stroke-width="2" points="464.12,-25.53 453.57,-26.42 462.38,-32.3 464.12,-25.53"/>
</g>
<!-- 27 -->
<g id="node28" class="node">
<title>27</title>
<path fill="none" stroke="#afd856" stroke-width="2" stroke-dasharray="5,2" d="M822,-108C822,-108 754,-108 754,-108 748,-108 742,-102 742,-96 742,-96 742,-84 742,-84 742,-78 748,-72 754,-72 754,-72 822,-72 822,-72 828,-72 834,-78 834,-84 834,-84 834,-96 834,-96 834,-102 828,-108 822,-108"/>
<text text-anchor="middle" x="788" y="-87.5" font-family="sans" font-size="10.00">annotation_gen</text>
</g>
<!-- 27&#45;&gt;0 -->
<g id="edge13" class="edge">
<title>27&#45;&gt;0</title>
<path fill="none" stroke="grey" stroke-width="2" d="M741.94,-75.43C737.25,-74.2 732.54,-73.04 728,-72 634.08,-50.57 522.12,-33.1 463.8,-24.59"/>
<polygon fill="grey" stroke="grey" stroke-width="2" points="463.95,-21.08 453.55,-23.11 462.94,-28.01 463.95,-21.08"/>
</g>
</g>
</svg>
