<?xml version="1.0" encoding="UTF-8" standalone="no"?>
<!DOCTYPE svg PUBLIC "-//W3C//DTD SVG 1.1//EN"
 "http://www.w3.org/Graphics/SVG/1.1/DTD/svg11.dtd">
<!-- Generated by graphviz version 2.43.0 (0)
 -->
<!-- Title: snakemake_dag Pages: 1 -->
<svg width="928pt" height="404pt"
 viewBox="0.00 0.00 928.00 404.00" xmlns="http://www.w3.org/2000/svg" xmlns:xlink="http://www.w3.org/1999/xlink">
<g id="graph0" class="graph" transform="scale(1 1) rotate(0) translate(4 400)">
<title>snakemake_dag</title>
<polygon fill="white" stroke="transparent" points="-4,4 -4,-400 924,-400 924,4 -4,4"/>
<!-- 0 -->
<g id="node1" class="node">
<title>0</title>
<path fill="none" stroke="#59d856" stroke-width="2" stroke-dasharray="5,2" d="M483.5,-36C483.5,-36 448.5,-36 448.5,-36 442.5,-36 436.5,-30 436.5,-24 436.5,-24 436.5,-12 436.5,-12 436.5,-6 442.5,0 448.5,0 448.5,0 483.5,0 483.5,0 489.5,0 495.5,-6 495.5,-12 495.5,-12 495.5,-24 495.5,-24 495.5,-30 489.5,-36 483.5,-36"/>
<text text-anchor="middle" x="466" y="-15.5" font-family="sans" font-size="10.00">counting</text>
</g>
<!-- 1 -->
<g id="node2" class="node">
<title>1</title>
<path fill="none" stroke="#88d856" stroke-width="2" stroke-dasharray="5,2" d="M169.5,-180C169.5,-180 130.5,-180 130.5,-180 124.5,-180 118.5,-174 118.5,-168 118.5,-168 118.5,-156 118.5,-156 118.5,-150 124.5,-144 130.5,-144 130.5,-144 169.5,-144 169.5,-144 175.5,-144 181.5,-150 181.5,-156 181.5,-156 181.5,-168 181.5,-168 181.5,-174 175.5,-180 169.5,-180"/>
<text text-anchor="middle" x="150" y="-159.5" font-family="sans" font-size="10.00">bamming</text>
</g>
<!-- 1&#45;&gt;0 -->
<g id="edge1" class="edge">
<title>1&#45;&gt;0</title>
<path fill="none" stroke="grey" stroke-width="2" d="M153.78,-143.99C159.24,-123.58 171.39,-89.87 195,-72 230.92,-44.81 360.17,-28.98 426.34,-22.48"/>
<polygon fill="grey" stroke="grey" stroke-width="2" points="426.78,-25.96 436.4,-21.52 426.11,-18.99 426.78,-25.96"/>
</g>
<!-- 27 -->
<g id="node28" class="node">
<title>27</title>
<path fill="none" stroke="#d88d56" stroke-width="2" stroke-dasharray="5,2" d="M135.5,-108C135.5,-108 100.5,-108 100.5,-108 94.5,-108 88.5,-102 88.5,-96 88.5,-96 88.5,-84 88.5,-84 88.5,-78 94.5,-72 100.5,-72 100.5,-72 135.5,-72 135.5,-72 141.5,-72 147.5,-78 147.5,-84 147.5,-84 147.5,-96 147.5,-96 147.5,-102 141.5,-108 135.5,-108"/>
<text text-anchor="middle" x="118" y="-87.5" font-family="sans" font-size="10.00">mapping</text>
</g>
<!-- 1&#45;&gt;27 -->
<g id="edge39" class="edge">
<title>1&#45;&gt;27</title>
<path fill="none" stroke="grey" stroke-width="2" d="M142.09,-143.7C138.45,-135.73 134.05,-126.1 130.01,-117.26"/>
<polygon fill="grey" stroke="grey" stroke-width="2" points="133.16,-115.74 125.82,-108.1 126.79,-118.65 133.16,-115.74"/>
</g>
<!-- 2 -->
<g id="node3" class="node">
<title>2</title>
<path fill="none" stroke="#bed856" stroke-width="2" stroke-dasharray="5,2" d="M169,-252C169,-252 131,-252 131,-252 125,-252 119,-246 119,-240 119,-240 119,-228 119,-228 119,-222 125,-216 131,-216 131,-216 169,-216 169,-216 175,-216 181,-222 181,-228 181,-228 181,-240 181,-240 181,-246 175,-252 169,-252"/>
<text text-anchor="middle" x="150" y="-231.5" font-family="sans" font-size="10.00">samming</text>
</g>
<!-- 2&#45;&gt;1 -->
<g id="edge14" class="edge">
<title>2&#45;&gt;1</title>
<path fill="none" stroke="grey" stroke-width="2" d="M150,-215.7C150,-207.98 150,-198.71 150,-190.11"/>
<polygon fill="grey" stroke="grey" stroke-width="2" points="153.5,-190.1 150,-180.1 146.5,-190.1 153.5,-190.1"/>
</g>
<!-- 3 -->
<g id="node4" class="node">
<title>3</title>
<path fill="none" stroke="#d8bc56" stroke-width="2" stroke-dasharray="5,2" d="M127,-324C127,-324 89,-324 89,-324 83,-324 77,-318 77,-312 77,-312 77,-300 77,-300 77,-294 83,-288 89,-288 89,-288 127,-288 127,-288 133,-288 139,-294 139,-300 139,-300 139,-312 139,-312 139,-318 133,-324 127,-324"/>
<text text-anchor="middle" x="108" y="-303.5" font-family="sans" font-size="10.00">trimming</text>
</g>
<!-- 3&#45;&gt;2 -->
<g id="edge15" class="edge">
<title>3&#45;&gt;2</title>
<path fill="none" stroke="grey" stroke-width="2" d="M118.38,-287.7C123.26,-279.56 129.19,-269.69 134.58,-260.7"/>
<polygon fill="grey" stroke="grey" stroke-width="2" points="137.59,-262.48 139.74,-252.1 131.59,-258.88 137.59,-262.48"/>
</g>
<!-- 4 -->
<g id="node5" class="node">
<title>4</title>
<path fill="none" stroke="#56d8c1" stroke-width="2" stroke-dasharray="5,2" d="M114,-396C114,-396 12,-396 12,-396 6,-396 0,-390 0,-384 0,-384 0,-372 0,-372 0,-366 6,-360 12,-360 12,-360 114,-360 114,-360 120,-360 126,-366 126,-372 126,-372 126,-384 126,-384 126,-390 120,-396 114,-396"/>
<text text-anchor="middle" x="63" y="-381" font-family="sans" font-size="10.00">downloading</text>
<text text-anchor="middle" x="63" y="-370" font-family="sans" font-size="10.00">sample: SRR10379721</text>
</g>
<!-- 4&#45;&gt;3 -->
<g id="edge17" class="edge">
<title>4&#45;&gt;3</title>
<path fill="none" stroke="grey" stroke-width="2" d="M74.12,-359.7C79.36,-351.56 85.7,-341.69 91.48,-332.7"/>
<polygon fill="grey" stroke="grey" stroke-width="2" points="94.54,-334.41 97,-324.1 88.65,-330.62 94.54,-334.41"/>
</g>
<!-- 5 -->
<g id="node6" class="node">
<title>5</title>
<path fill="none" stroke="#568ad8" stroke-width="2" stroke-dasharray="5,2" d="M477.5,-324C477.5,-324 442.5,-324 442.5,-324 436.5,-324 430.5,-318 430.5,-312 430.5,-312 430.5,-300 430.5,-300 430.5,-294 436.5,-288 442.5,-288 442.5,-288 477.5,-288 477.5,-288 483.5,-288 489.5,-294 489.5,-300 489.5,-300 489.5,-312 489.5,-312 489.5,-318 483.5,-324 477.5,-324"/>
<text text-anchor="middle" x="460" y="-303.5" font-family="sans" font-size="10.00">indexing</text>
</g>
<!-- 5&#45;&gt;2 -->
<g id="edge16" class="edge">
<title>5&#45;&gt;2</title>
<path fill="none" stroke="grey" stroke-width="2" d="M430.45,-295.09C422.55,-292.61 413.99,-290.07 406,-288 328.71,-267.99 308.16,-268.3 230,-252 217.4,-249.37 203.7,-246.48 191.25,-243.83"/>
<polygon fill="grey" stroke="grey" stroke-width="2" points="191.65,-240.34 181.14,-241.68 190.19,-247.18 191.65,-240.34"/>
</g>
<!-- 8 -->
<g id="node9" class="node">
<title>8</title>
<path fill="none" stroke="#bed856" stroke-width="2" stroke-dasharray="5,2" d="M289,-252C289,-252 251,-252 251,-252 245,-252 239,-246 239,-240 239,-240 239,-228 239,-228 239,-222 245,-216 251,-216 251,-216 289,-216 289,-216 295,-216 301,-222 301,-228 301,-228 301,-240 301,-240 301,-246 295,-252 289,-252"/>
<text text-anchor="middle" x="270" y="-231.5" font-family="sans" font-size="10.00">samming</text>
</g>
<!-- 5&#45;&gt;8 -->
<g id="edge21" class="edge">
<title>5&#45;&gt;8</title>
<path fill="none" stroke="grey" stroke-width="2" d="M430.31,-294.06C398.16,-282.22 346.67,-263.25 310.75,-250.01"/>
<polygon fill="grey" stroke="grey" stroke-width="2" points="311.65,-246.61 301.06,-246.44 309.23,-253.18 311.65,-246.61"/>
</g>
<!-- 12 -->
<g id="node13" class="node">
<title>12</title>
<path fill="none" stroke="#bed856" stroke-width="2" stroke-dasharray="5,2" d="M399,-252C399,-252 361,-252 361,-252 355,-252 349,-246 349,-240 349,-240 349,-228 349,-228 349,-222 355,-216 361,-216 361,-216 399,-216 399,-216 405,-216 411,-222 411,-228 411,-228 411,-240 411,-240 411,-246 405,-252 399,-252"/>
<text text-anchor="middle" x="380" y="-231.5" font-family="sans" font-size="10.00">samming</text>
</g>
<!-- 5&#45;&gt;12 -->
<g id="edge25" class="edge">
<title>5&#45;&gt;12</title>
<path fill="none" stroke="grey" stroke-width="2" d="M440.22,-287.7C430.25,-278.97 417.99,-268.24 407.14,-258.75"/>
<polygon fill="grey" stroke="grey" stroke-width="2" points="409.38,-256.06 399.55,-252.1 404.77,-261.32 409.38,-256.06"/>
</g>
<!-- 16 -->
<g id="node17" class="node">
<title>16</title>
<path fill="none" stroke="#bed856" stroke-width="2" stroke-dasharray="5,2" d="M514,-252C514,-252 476,-252 476,-252 470,-252 464,-246 464,-240 464,-240 464,-228 464,-228 464,-222 470,-216 476,-216 476,-216 514,-216 514,-216 520,-216 526,-222 526,-228 526,-228 526,-240 526,-240 526,-246 520,-252 514,-252"/>
<text text-anchor="middle" x="495" y="-231.5" font-family="sans" font-size="10.00">samming</text>
</g>
<!-- 5&#45;&gt;16 -->
<g id="edge29" class="edge">
<title>5&#45;&gt;16</title>
<path fill="none" stroke="grey" stroke-width="2" d="M468.65,-287.7C472.64,-279.73 477.45,-270.1 481.87,-261.26"/>
<polygon fill="grey" stroke="grey" stroke-width="2" points="485.11,-262.61 486.45,-252.1 478.85,-259.48 485.11,-262.61"/>
</g>
<!-- 20 -->
<g id="node21" class="node">
<title>20</title>
<path fill="none" stroke="#bed856" stroke-width="2" stroke-dasharray="5,2" d="M644,-252C644,-252 606,-252 606,-252 600,-252 594,-246 594,-240 594,-240 594,-228 594,-228 594,-222 600,-216 606,-216 606,-216 644,-216 644,-216 650,-216 656,-222 656,-228 656,-228 656,-240 656,-240 656,-246 650,-252 644,-252"/>
<text text-anchor="middle" x="625" y="-231.5" font-family="sans" font-size="10.00">samming</text>
</g>
<!-- 5&#45;&gt;20 -->
<g id="edge33" class="edge">
<title>5&#45;&gt;20</title>
<path fill="none" stroke="grey" stroke-width="2" d="M489.88,-292.32C516.33,-281.1 555.16,-264.63 584.42,-252.22"/>
<polygon fill="grey" stroke="grey" stroke-width="2" points="586.1,-255.3 593.94,-248.18 583.37,-248.86 586.1,-255.3"/>
</g>
<!-- 24 -->
<g id="node25" class="node">
<title>24</title>
<path fill="none" stroke="#bed856" stroke-width="2" stroke-dasharray="5,2" d="M731,-252C731,-252 693,-252 693,-252 687,-252 681,-246 681,-240 681,-240 681,-228 681,-228 681,-222 687,-216 693,-216 693,-216 731,-216 731,-216 737,-216 743,-222 743,-228 743,-228 743,-240 743,-240 743,-246 737,-252 731,-252"/>
<text text-anchor="middle" x="712" y="-231.5" font-family="sans" font-size="10.00">samming</text>
</g>
<!-- 5&#45;&gt;24 -->
<g id="edge37" class="edge">
<title>5&#45;&gt;24</title>
<path fill="none" stroke="grey" stroke-width="2" d="M489.6,-295.27C497.49,-292.78 506.04,-290.2 514,-288 580.5,-269.63 598.9,-271.76 665,-252 666.93,-251.42 668.9,-250.81 670.89,-250.17"/>
<polygon fill="grey" stroke="grey" stroke-width="2" points="672.45,-253.34 680.82,-246.84 670.22,-246.7 672.45,-253.34"/>
</g>
<!-- 6 -->
<g id="node7" class="node">
<title>6</title>
<path fill="none" stroke="#56d88a" stroke-width="2" stroke-dasharray="5,2" d="M476,-396C476,-396 444,-396 444,-396 438,-396 432,-390 432,-384 432,-384 432,-372 432,-372 432,-366 438,-360 444,-360 444,-360 476,-360 476,-360 482,-360 488,-366 488,-372 488,-372 488,-384 488,-384 488,-390 482,-396 476,-396"/>
<text text-anchor="middle" x="460" y="-375.5" font-family="sans" font-size="10.00">genome</text>
</g>
<!-- 6&#45;&gt;5 -->
<g id="edge18" class="edge">
<title>6&#45;&gt;5</title>
<path fill="none" stroke="grey" stroke-width="2" d="M460,-359.7C460,-351.98 460,-342.71 460,-334.11"/>
<polygon fill="grey" stroke="grey" stroke-width="2" points="463.5,-334.1 460,-324.1 456.5,-334.1 463.5,-334.1"/>
</g>
<!-- 7 -->
<g id="node8" class="node">
<title>7</title>
<path fill="none" stroke="#88d856" stroke-width="2" stroke-dasharray="5,2" d="M289.5,-180C289.5,-180 250.5,-180 250.5,-180 244.5,-180 238.5,-174 238.5,-168 238.5,-168 238.5,-156 238.5,-156 238.5,-150 244.5,-144 250.5,-144 250.5,-144 289.5,-144 289.5,-144 295.5,-144 301.5,-150 301.5,-156 301.5,-156 301.5,-168 301.5,-168 301.5,-174 295.5,-180 289.5,-180"/>
<text text-anchor="middle" x="270" y="-159.5" font-family="sans" font-size="10.00">bamming</text>
</g>
<!-- 7&#45;&gt;0 -->
<g id="edge2" class="edge">
<title>7&#45;&gt;0</title>
<path fill="none" stroke="grey" stroke-width="2" d="M273.59,-143.82C278.63,-123.88 289.66,-91.26 311,-72 343.14,-42.99 391.88,-29.74 426.1,-23.76"/>
<polygon fill="grey" stroke="grey" stroke-width="2" points="426.9,-27.18 436.22,-22.13 425.79,-20.27 426.9,-27.18"/>
</g>
<!-- 28 -->
<g id="node29" class="node">
<title>28</title>
<path fill="none" stroke="#d88d56" stroke-width="2" stroke-dasharray="5,2" d="M251.5,-108C251.5,-108 216.5,-108 216.5,-108 210.5,-108 204.5,-102 204.5,-96 204.5,-96 204.5,-84 204.5,-84 204.5,-78 210.5,-72 216.5,-72 216.5,-72 251.5,-72 251.5,-72 257.5,-72 263.5,-78 263.5,-84 263.5,-84 263.5,-96 263.5,-96 263.5,-102 257.5,-108 251.5,-108"/>
<text text-anchor="middle" x="234" y="-87.5" font-family="sans" font-size="10.00">mapping</text>
</g>
<!-- 7&#45;&gt;28 -->
<g id="edge40" class="edge">
<title>7&#45;&gt;28</title>
<path fill="none" stroke="grey" stroke-width="2" d="M261.1,-143.7C257,-135.73 252.05,-126.1 247.51,-117.26"/>
<polygon fill="grey" stroke="grey" stroke-width="2" points="250.48,-115.4 242.8,-108.1 244.26,-118.6 250.48,-115.4"/>
</g>
<!-- 8&#45;&gt;7 -->
<g id="edge19" class="edge">
<title>8&#45;&gt;7</title>
<path fill="none" stroke="grey" stroke-width="2" d="M270,-215.7C270,-207.98 270,-198.71 270,-190.11"/>
<polygon fill="grey" stroke="grey" stroke-width="2" points="273.5,-190.1 270,-180.1 266.5,-190.1 273.5,-190.1"/>
</g>
<!-- 9 -->
<g id="node10" class="node">
<title>9</title>
<path fill="none" stroke="#d8bc56" stroke-width="2" stroke-dasharray="5,2" d="M239,-324C239,-324 201,-324 201,-324 195,-324 189,-318 189,-312 189,-312 189,-300 189,-300 189,-294 195,-288 201,-288 201,-288 239,-288 239,-288 245,-288 251,-294 251,-300 251,-300 251,-312 251,-312 251,-318 245,-324 239,-324"/>
<text text-anchor="middle" x="220" y="-303.5" font-family="sans" font-size="10.00">trimming</text>
</g>
<!-- 9&#45;&gt;8 -->
<g id="edge20" class="edge">
<title>9&#45;&gt;8</title>
<path fill="none" stroke="grey" stroke-width="2" d="M232.36,-287.7C238.23,-279.47 245.37,-269.48 251.84,-260.42"/>
<polygon fill="grey" stroke="grey" stroke-width="2" points="254.82,-262.28 257.78,-252.1 249.12,-258.21 254.82,-262.28"/>
</g>
<!-- 10 -->
<g id="node11" class="node">
<title>10</title>
<path fill="none" stroke="#56d8c1" stroke-width="2" stroke-dasharray="5,2" d="M258,-396C258,-396 156,-396 156,-396 150,-396 144,-390 144,-384 144,-384 144,-372 144,-372 144,-366 150,-360 156,-360 156,-360 258,-360 258,-360 264,-360 270,-366 270,-372 270,-372 270,-384 270,-384 270,-390 264,-396 258,-396"/>
<text text-anchor="middle" x="207" y="-381" font-family="sans" font-size="10.00">downloading</text>
<text text-anchor="middle" x="207" y="-370" font-family="sans" font-size="10.00">sample: SRR10379722</text>
</g>
<!-- 10&#45;&gt;9 -->
<g id="edge22" class="edge">
<title>10&#45;&gt;9</title>
<path fill="none" stroke="grey" stroke-width="2" d="M210.21,-359.7C211.65,-351.98 213.37,-342.71 214.96,-334.11"/>
<polygon fill="grey" stroke="grey" stroke-width="2" points="218.44,-334.58 216.82,-324.1 211.56,-333.3 218.44,-334.58"/>
</g>
<!-- 11 -->
<g id="node12" class="node">
<title>11</title>
<path fill="none" stroke="#88d856" stroke-width="2" stroke-dasharray="5,2" d="M399.5,-180C399.5,-180 360.5,-180 360.5,-180 354.5,-180 348.5,-174 348.5,-168 348.5,-168 348.5,-156 348.5,-156 348.5,-150 354.5,-144 360.5,-144 360.5,-144 399.5,-144 399.5,-144 405.5,-144 411.5,-150 411.5,-156 411.5,-156 411.5,-168 411.5,-168 411.5,-174 405.5,-180 399.5,-180"/>
<text text-anchor="middle" x="380" y="-159.5" font-family="sans" font-size="10.00">bamming</text>
</g>
<!-- 11&#45;&gt;0 -->
<g id="edge3" class="edge">
<title>11&#45;&gt;0</title>
<path fill="none" stroke="grey" stroke-width="2" d="M388.11,-143.85C396.95,-125.61 411.87,-96.13 427,-72 432.83,-62.71 439.77,-52.93 446.17,-44.34"/>
<polygon fill="grey" stroke="grey" stroke-width="2" points="449.08,-46.29 452.33,-36.21 443.5,-42.07 449.08,-46.29"/>
</g>
<!-- 29 -->
<g id="node30" class="node">
<title>29</title>
<path fill="none" stroke="#d88d56" stroke-width="2" stroke-dasharray="5,2" d="M367.5,-108C367.5,-108 332.5,-108 332.5,-108 326.5,-108 320.5,-102 320.5,-96 320.5,-96 320.5,-84 320.5,-84 320.5,-78 326.5,-72 332.5,-72 332.5,-72 367.5,-72 367.5,-72 373.5,-72 379.5,-78 379.5,-84 379.5,-84 379.5,-96 379.5,-96 379.5,-102 373.5,-108 367.5,-108"/>
<text text-anchor="middle" x="350" y="-87.5" font-family="sans" font-size="10.00">mapping</text>
</g>
<!-- 11&#45;&gt;29 -->
<g id="edge41" class="edge">
<title>11&#45;&gt;29</title>
<path fill="none" stroke="grey" stroke-width="2" d="M372.58,-143.7C369.21,-135.81 365.13,-126.3 361.38,-117.55"/>
<polygon fill="grey" stroke="grey" stroke-width="2" points="364.49,-115.92 357.33,-108.1 358.05,-118.67 364.49,-115.92"/>
</g>
<!-- 12&#45;&gt;11 -->
<g id="edge23" class="edge">
<title>12&#45;&gt;11</title>
<path fill="none" stroke="grey" stroke-width="2" d="M380,-215.7C380,-207.98 380,-198.71 380,-190.11"/>
<polygon fill="grey" stroke="grey" stroke-width="2" points="383.5,-190.1 380,-180.1 376.5,-190.1 383.5,-190.1"/>
</g>
<!-- 13 -->
<g id="node14" class="node">
<title>13</title>
<path fill="none" stroke="#d8bc56" stroke-width="2" stroke-dasharray="5,2" d="M385,-324C385,-324 347,-324 347,-324 341,-324 335,-318 335,-312 335,-312 335,-300 335,-300 335,-294 341,-288 347,-288 347,-288 385,-288 385,-288 391,-288 397,-294 397,-300 397,-300 397,-312 397,-312 397,-318 391,-324 385,-324"/>
<text text-anchor="middle" x="366" y="-303.5" font-family="sans" font-size="10.00">trimming</text>
</g>
<!-- 13&#45;&gt;12 -->
<g id="edge24" class="edge">
<title>13&#45;&gt;12</title>
<path fill="none" stroke="grey" stroke-width="2" d="M369.46,-287.7C371,-279.98 372.86,-270.71 374.58,-262.11"/>
<polygon fill="grey" stroke="grey" stroke-width="2" points="378.05,-262.6 376.58,-252.1 371.19,-261.22 378.05,-262.6"/>
</g>
<!-- 14 -->
<g id="node15" class="node">
<title>14</title>
<path fill="none" stroke="#56d8c1" stroke-width="2" stroke-dasharray="5,2" d="M402,-396C402,-396 300,-396 300,-396 294,-396 288,-390 288,-384 288,-384 288,-372 288,-372 288,-366 294,-360 300,-360 300,-360 402,-360 402,-360 408,-360 414,-366 414,-372 414,-372 414,-384 414,-384 414,-390 408,-396 402,-396"/>
<text text-anchor="middle" x="351" y="-381" font-family="sans" font-size="10.00">downloading</text>
<text text-anchor="middle" x="351" y="-370" font-family="sans" font-size="10.00">sample: SRR10379723</text>
</g>
<!-- 14&#45;&gt;13 -->
<g id="edge26" class="edge">
<title>14&#45;&gt;13</title>
<path fill="none" stroke="grey" stroke-width="2" d="M354.71,-359.7C356.36,-351.98 358.35,-342.71 360.19,-334.11"/>
<polygon fill="grey" stroke="grey" stroke-width="2" points="363.66,-334.62 362.33,-324.1 356.82,-333.15 363.66,-334.62"/>
</g>
<!-- 15 -->
<g id="node16" class="node">
<title>15</title>
<path fill="none" stroke="#88d856" stroke-width="2" stroke-dasharray="5,2" d="M514.5,-180C514.5,-180 475.5,-180 475.5,-180 469.5,-180 463.5,-174 463.5,-168 463.5,-168 463.5,-156 463.5,-156 463.5,-150 469.5,-144 475.5,-144 475.5,-144 514.5,-144 514.5,-144 520.5,-144 526.5,-150 526.5,-156 526.5,-156 526.5,-168 526.5,-168 526.5,-174 520.5,-180 514.5,-180"/>
<text text-anchor="middle" x="495" y="-159.5" font-family="sans" font-size="10.00">bamming</text>
</g>
<!-- 15&#45;&gt;0 -->
<g id="edge4" class="edge">
<title>15&#45;&gt;0</title>
<path fill="none" stroke="grey" stroke-width="2" d="M500.77,-143.84C505.98,-125.59 511.75,-96.1 504,-72 500.81,-62.08 495,-52.44 488.87,-44.17"/>
<polygon fill="grey" stroke="grey" stroke-width="2" points="491.42,-41.74 482.46,-36.08 485.93,-46.09 491.42,-41.74"/>
</g>
<!-- 30 -->
<g id="node31" class="node">
<title>30</title>
<path fill="none" stroke="#d88d56" stroke-width="2" stroke-dasharray="5,2" d="M483.5,-108C483.5,-108 448.5,-108 448.5,-108 442.5,-108 436.5,-102 436.5,-96 436.5,-96 436.5,-84 436.5,-84 436.5,-78 442.5,-72 448.5,-72 448.5,-72 483.5,-72 483.5,-72 489.5,-72 495.5,-78 495.5,-84 495.5,-84 495.5,-96 495.5,-96 495.5,-102 489.5,-108 483.5,-108"/>
<text text-anchor="middle" x="466" y="-87.5" font-family="sans" font-size="10.00">mapping</text>
</g>
<!-- 15&#45;&gt;30 -->
<g id="edge42" class="edge">
<title>15&#45;&gt;30</title>
<path fill="none" stroke="grey" stroke-width="2" d="M487.83,-143.7C484.57,-135.81 480.63,-126.3 477,-117.55"/>
<polygon fill="grey" stroke="grey" stroke-width="2" points="480.15,-116 473.09,-108.1 473.68,-118.68 480.15,-116"/>
</g>
<!-- 16&#45;&gt;15 -->
<g id="edge27" class="edge">
<title>16&#45;&gt;15</title>
<path fill="none" stroke="grey" stroke-width="2" d="M495,-215.7C495,-207.98 495,-198.71 495,-190.11"/>
<polygon fill="grey" stroke="grey" stroke-width="2" points="498.5,-190.1 495,-180.1 491.5,-190.1 498.5,-190.1"/>
</g>
<!-- 17 -->
<g id="node18" class="node">
<title>17</title>
<path fill="none" stroke="#d8bc56" stroke-width="2" stroke-dasharray="5,2" d="M573,-324C573,-324 535,-324 535,-324 529,-324 523,-318 523,-312 523,-312 523,-300 523,-300 523,-294 529,-288 535,-288 535,-288 573,-288 573,-288 579,-288 585,-294 585,-300 585,-300 585,-312 585,-312 585,-318 579,-324 573,-324"/>
<text text-anchor="middle" x="554" y="-303.5" font-family="sans" font-size="10.00">trimming</text>
</g>
<!-- 17&#45;&gt;16 -->
<g id="edge28" class="edge">
<title>17&#45;&gt;16</title>
<path fill="none" stroke="grey" stroke-width="2" d="M539.42,-287.7C532.34,-279.3 523.72,-269.07 515.95,-259.86"/>
<polygon fill="grey" stroke="grey" stroke-width="2" points="518.54,-257.49 509.42,-252.1 513.19,-262.01 518.54,-257.49"/>
</g>
<!-- 18 -->
<g id="node19" class="node">
<title>18</title>
<path fill="none" stroke="#56d8c1" stroke-width="2" stroke-dasharray="5,2" d="M620,-396C620,-396 518,-396 518,-396 512,-396 506,-390 506,-384 506,-384 506,-372 506,-372 506,-366 512,-360 518,-360 518,-360 620,-360 620,-360 626,-360 632,-366 632,-372 632,-372 632,-384 632,-384 632,-390 626,-396 620,-396"/>
<text text-anchor="middle" x="569" y="-381" font-family="sans" font-size="10.00">downloading</text>
<text text-anchor="middle" x="569" y="-370" font-family="sans" font-size="10.00">sample: SRR10379724</text>
</g>
<!-- 18&#45;&gt;17 -->
<g id="edge30" class="edge">
<title>18&#45;&gt;17</title>
<path fill="none" stroke="grey" stroke-width="2" d="M565.29,-359.7C563.64,-351.98 561.65,-342.71 559.81,-334.11"/>
<polygon fill="grey" stroke="grey" stroke-width="2" points="563.18,-333.15 557.67,-324.1 556.34,-334.62 563.18,-333.15"/>
</g>
<!-- 19 -->
<g id="node20" class="node">
<title>19</title>
<path fill="none" stroke="#88d856" stroke-width="2" stroke-dasharray="5,2" d="M644.5,-180C644.5,-180 605.5,-180 605.5,-180 599.5,-180 593.5,-174 593.5,-168 593.5,-168 593.5,-156 593.5,-156 593.5,-150 599.5,-144 605.5,-144 605.5,-144 644.5,-144 644.5,-144 650.5,-144 656.5,-150 656.5,-156 656.5,-156 656.5,-168 656.5,-168 656.5,-174 650.5,-180 644.5,-180"/>
<text text-anchor="middle" x="625" y="-159.5" font-family="sans" font-size="10.00">bamming</text>
</g>
<!-- 19&#45;&gt;0 -->
<g id="edge5" class="edge">
<title>19&#45;&gt;0</title>
<path fill="none" stroke="grey" stroke-width="2" d="M629.26,-143.68C632.97,-124.2 635.59,-92.61 620,-72 593.37,-36.8 541.96,-24.82 505.89,-20.83"/>
<polygon fill="grey" stroke="grey" stroke-width="2" points="505.98,-17.33 495.7,-19.87 505.32,-24.3 505.98,-17.33"/>
</g>
<!-- 31 -->
<g id="node32" class="node">
<title>31</title>
<path fill="none" stroke="#d88d56" stroke-width="2" stroke-dasharray="5,2" d="M599.5,-108C599.5,-108 564.5,-108 564.5,-108 558.5,-108 552.5,-102 552.5,-96 552.5,-96 552.5,-84 552.5,-84 552.5,-78 558.5,-72 564.5,-72 564.5,-72 599.5,-72 599.5,-72 605.5,-72 611.5,-78 611.5,-84 611.5,-84 611.5,-96 611.5,-96 611.5,-102 605.5,-108 599.5,-108"/>
<text text-anchor="middle" x="582" y="-87.5" font-family="sans" font-size="10.00">mapping</text>
</g>
<!-- 19&#45;&gt;31 -->
<g id="edge43" class="edge">
<title>19&#45;&gt;31</title>
<path fill="none" stroke="grey" stroke-width="2" d="M614.37,-143.7C609.37,-135.56 603.31,-125.69 597.79,-116.7"/>
<polygon fill="grey" stroke="grey" stroke-width="2" points="600.72,-114.79 592.51,-108.1 594.76,-118.46 600.72,-114.79"/>
</g>
<!-- 20&#45;&gt;19 -->
<g id="edge31" class="edge">
<title>20&#45;&gt;19</title>
<path fill="none" stroke="grey" stroke-width="2" d="M625,-215.7C625,-207.98 625,-198.71 625,-190.11"/>
<polygon fill="grey" stroke="grey" stroke-width="2" points="628.5,-190.1 625,-180.1 621.5,-190.1 628.5,-190.1"/>
</g>
<!-- 21 -->
<g id="node22" class="node">
<title>21</title>
<path fill="none" stroke="#d8bc56" stroke-width="2" stroke-dasharray="5,2" d="M692,-324C692,-324 654,-324 654,-324 648,-324 642,-318 642,-312 642,-312 642,-300 642,-300 642,-294 648,-288 654,-288 654,-288 692,-288 692,-288 698,-288 704,-294 704,-300 704,-300 704,-312 704,-312 704,-318 698,-324 692,-324"/>
<text text-anchor="middle" x="673" y="-303.5" font-family="sans" font-size="10.00">trimming</text>
</g>
<!-- 21&#45;&gt;20 -->
<g id="edge32" class="edge">
<title>21&#45;&gt;20</title>
<path fill="none" stroke="grey" stroke-width="2" d="M661.13,-287.7C655.5,-279.47 648.65,-269.48 642.43,-260.42"/>
<polygon fill="grey" stroke="grey" stroke-width="2" points="645.27,-258.37 636.73,-252.1 639.5,-262.33 645.27,-258.37"/>
</g>
<!-- 22 -->
<g id="node23" class="node">
<title>22</title>
<path fill="none" stroke="#56d8c1" stroke-width="2" stroke-dasharray="5,2" d="M764,-396C764,-396 662,-396 662,-396 656,-396 650,-390 650,-384 650,-384 650,-372 650,-372 650,-366 656,-360 662,-360 662,-360 764,-360 764,-360 770,-360 776,-366 776,-372 776,-372 776,-384 776,-384 776,-390 770,-396 764,-396"/>
<text text-anchor="middle" x="713" y="-381" font-family="sans" font-size="10.00">downloading</text>
<text text-anchor="middle" x="713" y="-370" font-family="sans" font-size="10.00">sample: SRR10379725</text>
</g>
<!-- 22&#45;&gt;21 -->
<g id="edge34" class="edge">
<title>22&#45;&gt;21</title>
<path fill="none" stroke="grey" stroke-width="2" d="M703.11,-359.7C698.51,-351.64 692.94,-341.89 687.85,-332.98"/>
<polygon fill="grey" stroke="grey" stroke-width="2" points="690.77,-331.05 682.77,-324.1 684.7,-334.52 690.77,-331.05"/>
</g>
<!-- 23 -->
<g id="node24" class="node">
<title>23</title>
<path fill="none" stroke="#88d856" stroke-width="2" stroke-dasharray="5,2" d="M731.5,-180C731.5,-180 692.5,-180 692.5,-180 686.5,-180 680.5,-174 680.5,-168 680.5,-168 680.5,-156 680.5,-156 680.5,-150 686.5,-144 692.5,-144 692.5,-144 731.5,-144 731.5,-144 737.5,-144 743.5,-150 743.5,-156 743.5,-156 743.5,-168 743.5,-168 743.5,-174 737.5,-180 731.5,-180"/>
<text text-anchor="middle" x="712" y="-159.5" font-family="sans" font-size="10.00">bamming</text>
</g>
<!-- 23&#45;&gt;0 -->
<g id="edge6" class="edge">
<title>23&#45;&gt;0</title>
<path fill="none" stroke="grey" stroke-width="2" d="M725.14,-143.71C738.21,-124.26 754.04,-92.69 737,-72 708.22,-37.05 574.37,-24.82 506.17,-20.81"/>
<polygon fill="grey" stroke="grey" stroke-width="2" points="505.99,-17.3 495.81,-20.24 505.6,-24.28 505.99,-17.3"/>
</g>
<!-- 32 -->
<g id="node33" class="node">
<title>32</title>
<path fill="none" stroke="#d88d56" stroke-width="2" stroke-dasharray="5,2" d="M715.5,-108C715.5,-108 680.5,-108 680.5,-108 674.5,-108 668.5,-102 668.5,-96 668.5,-96 668.5,-84 668.5,-84 668.5,-78 674.5,-72 680.5,-72 680.5,-72 715.5,-72 715.5,-72 721.5,-72 727.5,-78 727.5,-84 727.5,-84 727.5,-96 727.5,-96 727.5,-102 721.5,-108 715.5,-108"/>
<text text-anchor="middle" x="698" y="-87.5" font-family="sans" font-size="10.00">mapping</text>
</g>
<!-- 23&#45;&gt;32 -->
<g id="edge44" class="edge">
<title>23&#45;&gt;32</title>
<path fill="none" stroke="grey" stroke-width="2" d="M708.54,-143.7C707,-135.98 705.14,-126.71 703.42,-118.11"/>
<polygon fill="grey" stroke="grey" stroke-width="2" points="706.81,-117.22 701.42,-108.1 699.95,-118.6 706.81,-117.22"/>
</g>
<!-- 24&#45;&gt;23 -->
<g id="edge35" class="edge">
<title>24&#45;&gt;23</title>
<path fill="none" stroke="grey" stroke-width="2" d="M712,-215.7C712,-207.98 712,-198.71 712,-190.11"/>
<polygon fill="grey" stroke="grey" stroke-width="2" points="715.5,-190.1 712,-180.1 708.5,-190.1 715.5,-190.1"/>
</g>
<!-- 25 -->
<g id="node26" class="node">
<title>25</title>
<path fill="none" stroke="#d8bc56" stroke-width="2" stroke-dasharray="5,2" d="M824,-324C824,-324 786,-324 786,-324 780,-324 774,-318 774,-312 774,-312 774,-300 774,-300 774,-294 780,-288 786,-288 786,-288 824,-288 824,-288 830,-288 836,-294 836,-300 836,-300 836,-312 836,-312 836,-318 830,-324 824,-324"/>
<text text-anchor="middle" x="805" y="-303.5" font-family="sans" font-size="10.00">trimming</text>
</g>
<!-- 25&#45;&gt;24 -->
<g id="edge36" class="edge">
<title>25&#45;&gt;24</title>
<path fill="none" stroke="grey" stroke-width="2" d="M782.01,-287.7C770.19,-278.8 755.61,-267.82 742.82,-258.2"/>
<polygon fill="grey" stroke="grey" stroke-width="2" points="744.82,-255.32 734.72,-252.1 740.61,-260.91 744.82,-255.32"/>
</g>
<!-- 26 -->
<g id="node27" class="node">
<title>26</title>
<path fill="none" stroke="#56d8c1" stroke-width="2" stroke-dasharray="5,2" d="M908,-396C908,-396 806,-396 806,-396 800,-396 794,-390 794,-384 794,-384 794,-372 794,-372 794,-366 800,-360 806,-360 806,-360 908,-360 908,-360 914,-360 920,-366 920,-372 920,-372 920,-384 920,-384 920,-390 914,-396 908,-396"/>
<text text-anchor="middle" x="857" y="-381" font-family="sans" font-size="10.00">downloading</text>
<text text-anchor="middle" x="857" y="-370" font-family="sans" font-size="10.00">sample: SRR10379726</text>
</g>
<!-- 26&#45;&gt;25 -->
<g id="edge38" class="edge">
<title>26&#45;&gt;25</title>
<path fill="none" stroke="grey" stroke-width="2" d="M844.15,-359.7C837.97,-351.39 830.46,-341.28 823.68,-332.14"/>
<polygon fill="grey" stroke="grey" stroke-width="2" points="826.48,-330.04 817.71,-324.1 820.86,-334.22 826.48,-330.04"/>
</g>
<!-- 27&#45;&gt;0 -->
<g id="edge7" class="edge">
<title>27&#45;&gt;0</title>
<path fill="none" stroke="grey" stroke-width="2" d="M147.56,-76.67C152.33,-74.95 157.27,-73.31 162,-72 255.02,-46.19 367.69,-30.46 426.28,-23.4"/>
<polygon fill="grey" stroke="grey" stroke-width="2" points="426.71,-26.88 436.23,-22.22 425.89,-19.92 426.71,-26.88"/>
</g>
<!-- 28&#45;&gt;0 -->
<g id="edge8" class="edge">
<title>28&#45;&gt;0</title>
<path fill="none" stroke="grey" stroke-width="2" d="M263.68,-77.1C268.45,-75.31 273.34,-73.55 278,-72 328.8,-55.07 388.45,-38.86 426.71,-28.93"/>
<polygon fill="grey" stroke="grey" stroke-width="2" points="427.62,-32.3 436.43,-26.42 425.88,-25.53 427.62,-32.3"/>
</g>
<!-- 29&#45;&gt;0 -->
<g id="edge9" class="edge">
<title>29&#45;&gt;0</title>
<path fill="none" stroke="grey" stroke-width="2" d="M378.38,-71.88C393.54,-62.72 412.41,-51.34 428.74,-41.48"/>
<polygon fill="grey" stroke="grey" stroke-width="2" points="430.76,-44.35 437.51,-36.19 427.14,-38.36 430.76,-44.35"/>
</g>
<!-- 30&#45;&gt;0 -->
<g id="edge10" class="edge">
<title>30&#45;&gt;0</title>
<path fill="none" stroke="grey" stroke-width="2" d="M466,-71.7C466,-63.98 466,-54.71 466,-46.11"/>
<polygon fill="grey" stroke="grey" stroke-width="2" points="469.5,-46.1 466,-36.1 462.5,-46.1 469.5,-46.1"/>
</g>
<!-- 31&#45;&gt;0 -->
<g id="edge11" class="edge">
<title>31&#45;&gt;0</title>
<path fill="none" stroke="grey" stroke-width="2" d="M553.62,-71.88C538.46,-62.72 519.59,-51.34 503.26,-41.48"/>
<polygon fill="grey" stroke="grey" stroke-width="2" points="504.86,-38.36 494.49,-36.19 501.24,-44.35 504.86,-38.36"/>
</g>
<!-- 32&#45;&gt;0 -->
<g id="edge12" class="edge">
<title>32&#45;&gt;0</title>
<path fill="none" stroke="grey" stroke-width="2" d="M668.32,-77.1C663.55,-75.31 658.66,-73.55 654,-72 603.2,-55.07 543.55,-38.86 505.29,-28.93"/>
<polygon fill="grey" stroke="grey" stroke-width="2" points="506.12,-25.53 495.57,-26.42 504.38,-32.3 506.12,-25.53"/>
</g>
<!-- 33 -->
<g id="node34" class="node">
<title>33</title>
<path fill="none" stroke="#d85656" stroke-width="2" stroke-dasharray="5,2" d="M864,-108C864,-108 796,-108 796,-108 790,-108 784,-102 784,-96 784,-96 784,-84 784,-84 784,-78 790,-72 796,-72 796,-72 864,-72 864,-72 870,-72 876,-78 876,-84 876,-84 876,-96 876,-96 876,-102 870,-108 864,-108"/>
<text text-anchor="middle" x="830" y="-87.5" font-family="sans" font-size="10.00">annotation_gen</text>
</g>
<!-- 33&#45;&gt;0 -->
<g id="edge13" class="edge">
<title>33&#45;&gt;0</title>
<path fill="none" stroke="grey" stroke-width="2" d="M783.94,-75.43C779.25,-74.2 774.54,-73.04 770,-72 676.08,-50.57 564.12,-33.1 505.8,-24.59"/>
<polygon fill="grey" stroke="grey" stroke-width="2" points="505.95,-21.08 495.55,-23.11 504.94,-28.01 505.95,-21.08"/>
</g>
</g>
</svg>
